<svg xmlns="http://www.w3.org/2000/svg" width="297mm" height="200mm" viewBox="0 0 29700 21000" shape-rendering="geometricPrecision" text-rendering="geometricPrecision" image-rendering="optimizeQuality" fill-rule="evenodd" clip-rule="evenodd"><path fill="#ffa800" d="M6162 7512h626v6603h-626z"/><path d="M185 7512h5492v6603H185V8693h4360v4241H1137v-1073c258 244 606 393 988 393h1441v-1580H2125v514h927v552h-927c-510 0-926-416-926-926 0-511 416-927 926-927h1441v-514H2125c-758 0-1382 589-1436 1334h-5v2755h4374V8165H185v-653z" fill="#f25410"/><path d="M8689 9975h1285v-459H8689c-708 0-1284 576-1284 1284 0 709 576 1285 1284 1285h1285v-1409H8689v458h826v492h-826c-455 0-826-371-826-826s371-825 826-825zm5207 1119h580l-290-569-290 569zm816 461h-1051l-36 71-235 459h-514l235-459 1075-2110 1076 2110 235 459h-514l-235-459-36-71zm7430-461h580l-290-569-290 569zm816 461h-1051l-36 71-235 459h-514l235-459 1075-2110 1076 2110 235 459h-514l-235-459-36-71zm5133-2039c-708 0-1284 576-1284 1284 0 709 576 1285 1284 1285s1285-576 1285-1285c0-708-577-1284-1285-1284zm0 2110c-455 0-825-371-825-826s370-825 825-825 826 370 826 825-371 826-826 826zm-2018-2110v1634l-1652-1271-458-352v2558h458v-1624l1652 1272 459 352V9520l-459-4zm-7420 0v2569h1284c352 0 672-143 903-378 25-26 51-52 73-77 191-224 305-514 305-830 0-712-576-1284-1285-1284h-1280zm455 459h825c455 0 826 371 826 827s-371 828-826 828h-825V9975zm-1281-459v1634l-1652-1271-458-352v2558h458v-1624l1652 1272 459 352V9520l-459-4zm-5780 1383c70-7 136-25 198-55 239-110 404-352 404-633 0-192-77-365-202-493-125-125-297-202-488-202h-1622v2569h459v-1178h458c165 0 309 87 389 219l11 22 246 479 235 458h514l-235-458-367-728zm-1251-447v-477h1163c81 0 136 36 165 66 26 26 70 85 70 170 0 93-55 178-140 215-29 15-62 22-95 22l-1163 4z" fill="#2b2c49"/></svg>