<svg width="15" height="9" viewBox="0 0 15 9" fill="none" xmlns="http://www.w3.org/2000/svg">
<path d="M0.171856 4.91476C0.172032 4.91493 0.172179 4.91514 0.172384 4.91531L3.23402 7.96219C3.46339 8.19044 3.83438 8.18959 4.06269 7.9602C4.29097 7.73083 4.29009 7.35985 4.06072 7.13157L2.00514 5.08594L14.4141 5.08594C14.7377 5.08594 15 4.82361 15 4.5C15 4.17639 14.7377 3.91406 14.4141 3.91406L2.00517 3.91406L4.06069 1.86844C4.29006 1.64016 4.29094 1.26917 4.06266 1.03981C3.83435 0.810382 3.46333 0.809591 3.23399 1.03781L0.172354 4.08469C0.172178 4.08487 0.172032 4.08507 0.171826 4.08525C-0.0576557 4.31429 -0.0569232 4.68648 0.171856 4.91476Z" fill="#F25410"/>
</svg>
