<svg width="26" height="29" viewBox="0 0 26 29" fill="none" xmlns="http://www.w3.org/2000/svg">
<path d="M3.34375 12.7238V11.586C3.06375 11.3946 2.8348 11.1376 2.67685 10.8375C2.51889 10.5374 2.43672 10.2032 2.4375 9.86408V6.34375C2.31732 6.34375 2.20207 6.29601 2.11709 6.21103C2.03211 6.12606 1.98438 6.0108 1.98438 5.89062V4.98438C1.98438 3.90279 2.41403 2.8655 3.17883 2.10071C3.94363 1.33591 4.98091 0.90625 6.0625 0.90625C7.14409 0.90625 8.18137 1.33591 8.94617 2.10071C9.71097 2.8655 10.1406 3.90279 10.1406 4.98438V5.4375H12.4062C12.5264 5.4375 12.6417 5.48524 12.7267 5.57022C12.8116 5.65519 12.8594 5.77045 12.8594 5.89062C12.8594 6.0108 12.8116 6.12606 12.7267 6.21103C12.6417 6.29601 12.5264 6.34375 12.4062 6.34375H9.6875V8.60938C9.68655 9.37188 9.41138 10.1086 8.91224 10.685C8.4131 11.2615 7.72328 11.6391 6.96875 11.7491V12.6875H7.42188C8.26281 12.6885 9.06904 13.0229 9.66367 13.6176C10.2583 14.2122 10.5928 15.0184 10.5938 15.8594V19.0312H11.5V9.51562C11.5 9.39545 11.5477 9.28019 11.6327 9.19522C11.7177 9.11024 11.8329 9.0625 11.9531 9.0625H24.6406C24.7608 9.0625 24.8761 9.11024 24.961 9.19522C25.046 9.28019 25.0938 9.39545 25.0938 9.51562V20.3906C25.0938 20.5108 25.046 20.6261 24.961 20.711C24.8761 20.796 24.7608 20.8438 24.6406 20.8438H20.5172C20.412 21.3551 20.1338 21.8146 19.7293 22.1448C19.3249 22.475 18.819 22.6556 18.2969 22.6562H16.9375V24.0156C16.9375 24.1358 16.8898 24.2511 16.8048 24.336C16.7198 24.421 16.6046 24.4688 16.4844 24.4688H13.7656C13.6454 24.4688 13.5302 24.421 13.4452 24.336C13.3602 24.2511 13.3125 24.1358 13.3125 24.0156V23.5625H10.5938V27.6406C10.5938 27.7608 10.546 27.8761 10.461 27.961C10.3761 28.046 10.2608 28.0938 10.1406 28.0938H1.07812C0.957949 28.0938 0.842695 28.046 0.757717 27.961C0.672739 27.8761 0.625 27.7608 0.625 27.6406V15.8594C0.626457 15.0974 0.901901 14.3615 1.40104 13.7858C1.90018 13.2101 2.58971 12.8332 3.34375 12.7238ZM9.23438 4.98438C9.23438 4.14314 8.9002 3.33636 8.30536 2.74152C7.71051 2.14668 6.90373 1.8125 6.0625 1.8125C5.22127 1.8125 4.41449 2.14668 3.81964 2.74152C3.2248 3.33636 2.89062 4.14314 2.89062 4.98438V5.4375H9.23438V4.98438ZM5.60938 10.875H6.51562C7.11629 10.8743 7.69214 10.6354 8.11687 10.2106C8.5416 9.78589 8.78053 9.21004 8.78125 8.60938V6.34375H3.34375V9.86181C3.34285 10.0823 3.40382 10.2985 3.51973 10.4861C3.63564 10.6736 3.80183 10.8248 3.99942 10.9226C4.07475 10.9602 4.13809 11.0181 4.18235 11.0897C4.22661 11.1614 4.25004 11.2439 4.25 11.3281V12.6875H6.0625V11.7812H5.60938C5.4892 11.7812 5.37395 11.7335 5.28897 11.6485C5.20399 11.5636 5.15625 11.4483 5.15625 11.3281C5.15625 11.2079 5.20399 11.0927 5.28897 11.0077C5.37395 10.9227 5.4892 10.875 5.60938 10.875ZM17.3906 9.96875V13.2L18.0454 12.7636C18.1199 12.7139 18.2074 12.6874 18.2969 12.6874C18.3864 12.6874 18.4739 12.7139 18.5484 12.7636L19.2031 13.2V9.96875H17.3906ZM24.1875 9.96875H20.1094V14.0469C20.1094 14.1289 20.0871 14.2094 20.045 14.2798C20.0028 14.3502 19.9424 14.4078 19.87 14.4465C19.7977 14.4852 19.7162 14.5035 19.6343 14.4995C19.5523 14.4956 19.473 14.4694 19.4048 14.4239L18.2969 13.6844L17.189 14.423C17.1208 14.4685 17.0416 14.4946 16.9597 14.4986C16.8779 14.5026 16.7964 14.4844 16.7241 14.4458C16.6518 14.4072 16.5913 14.3497 16.5491 14.2795C16.5069 14.2092 16.4845 14.1288 16.4844 14.0469V9.96875H12.4062V19.0312H13.3125V18.5781C13.3125 18.4579 13.3602 18.3427 13.4452 18.2577C13.5302 18.1727 13.6454 18.125 13.7656 18.125H16.4844C16.6046 18.125 16.7198 18.1727 16.8048 18.2577C16.8898 18.3427 16.9375 18.4579 16.9375 18.5781V19.9375H24.1875V9.96875ZM18.2969 21.75C18.5779 21.7497 18.852 21.6624 19.0815 21.5001C19.311 21.3379 19.4847 21.1086 19.5788 20.8438H16.9375V21.75H18.2969ZM14.2188 23.5625H16.0312V19.0312H14.2188V23.5625ZM13.3125 19.9375H8.32812C7.9676 19.9375 7.62183 19.7943 7.3669 19.5393C7.11197 19.2844 6.96875 18.9387 6.96875 18.5781V16.7656C6.96875 16.4051 6.82553 16.0593 6.5706 15.8044C6.31567 15.5495 5.9699 15.4062 5.60938 15.4062C5.24885 15.4062 4.90308 15.5495 4.64815 15.8044C4.39322 16.0593 4.25 16.4051 4.25 16.7656V19.4844C4.25096 20.3253 4.58545 21.1315 5.18008 21.7262C5.77471 22.3208 6.58094 22.6553 7.42188 22.6562H13.3125V19.9375ZM7.42188 23.5625C6.34066 23.5613 5.30407 23.1313 4.53953 22.3667C3.77499 21.6022 3.34495 20.5656 3.34375 19.4844V16.7656C3.34375 16.1647 3.58245 15.5885 4.00734 15.1636C4.43222 14.7387 5.00849 14.5 5.60938 14.5C6.21026 14.5 6.78653 14.7387 7.21141 15.1636C7.6363 15.5885 7.875 16.1647 7.875 16.7656V18.5781C7.875 18.6983 7.92274 18.8136 8.00772 18.8985C8.0927 18.9835 8.20795 19.0312 8.32812 19.0312H9.6875V15.8594C9.68678 15.2587 9.44785 14.6829 9.02312 14.2581C8.59839 13.8334 8.02254 13.5945 7.42188 13.5938H3.79688C3.19621 13.5945 2.62036 13.8334 2.19563 14.2581C1.7709 14.6829 1.53197 15.2587 1.53125 15.8594V25.375H9.6875V23.5625H7.42188ZM1.53125 27.1875H9.6875V26.2812H1.53125V27.1875Z" fill="#F25410"/>
</svg>
