<svg width="17" height="17" viewBox="0 0 17 17" fill="none" xmlns="http://www.w3.org/2000/svg">
<path d="M8.21193 16.0259H3.77793C2.57292 16.0259 1.5952 15.0446 1.5952 13.8432V3.15683C1.5952 1.95183 2.57653 0.974109 3.77793 0.974109H8.28408C8.55467 0.974109 8.77114 0.75764 8.77114 0.487054C8.77114 0.216469 8.55467 0 8.28408 0H3.77793C2.03536 0 0.621094 1.41787 0.621094 3.15683V13.8432C0.621094 15.5857 2.03896 17 3.77793 17H8.21193C8.48251 17 8.69898 16.7835 8.69898 16.5129C8.69898 16.2424 8.47891 16.0259 8.21193 16.0259Z" fill="#F25410"/>
<path d="M16.2354 8.15726L13.1399 5.06176C12.9487 4.87055 12.642 4.87055 12.4508 5.06176C12.2596 5.25297 12.2596 5.55964 12.4508 5.75085L14.7165 8.01656H4.83471C4.56412 8.01656 4.34766 8.23303 4.34766 8.50361C4.34766 8.7742 4.56412 8.99066 4.83471 8.99066H14.7165L12.4508 11.2564C12.2596 11.4476 12.2596 11.7542 12.4508 11.9455C12.5446 12.0393 12.6709 12.0898 12.7935 12.0898C12.9162 12.0898 13.0425 12.0429 13.1363 11.9455L16.2318 8.84996C16.4266 8.65514 16.4266 8.34487 16.2354 8.15726Z" fill="#F25410"/>
</svg>
