<svg width="20" height="20" viewBox="0 0 20 20" fill="none" xmlns="http://www.w3.org/2000/svg">
<g clip-path="url(#clip0)">
<path d="M19.9005 9.67328C19.8559 9.60687 18.7883 8.02844 17.0537 6.4309C16.0268 5.48512 14.9777 4.72954 13.9357 4.1852C12.6055 3.49028 11.2814 3.13794 10 3.13794C8.71867 3.13794 7.39454 3.49028 6.06434 4.1852C5.02231 4.72958 3.97329 5.48512 2.94634 6.4309C1.21178 8.02844 0.144199 9.60687 0.0995506 9.67328C-0.0331835 9.87086 -0.0331835 10.129 0.0995506 10.3266C0.14416 10.393 1.21178 11.9714 2.9463 13.569C3.97325 14.5148 5.02232 15.2703 6.0643 15.8147C7.3945 16.5096 8.71864 16.8619 10 16.8619C11.2814 16.8619 12.6055 16.5096 13.9357 15.8147C14.9777 15.2703 16.0267 14.5148 17.0537 13.569C18.7882 11.9714 19.8558 10.393 19.9004 10.3266C20.0332 10.129 20.0332 9.87086 19.9005 9.67328ZM16.2414 12.7239C14.768 14.0771 12.4892 15.6901 10.0001 15.6901C7.51098 15.6901 5.23212 14.0771 3.75872 12.7239C2.57267 11.6347 1.70138 10.5317 1.30681 9.99992C1.70146 9.46808 2.57267 8.36512 3.75868 7.27594C5.23208 5.92282 7.51094 4.30981 10 4.30981C12.4891 4.30981 14.768 5.92282 16.2414 7.27594C17.4274 8.36516 18.2987 9.46816 18.6933 9.99992C18.2986 10.5318 17.4274 11.6347 16.2414 12.7239Z" fill="#5F5F5F"/>
<path d="M10.0006 6.90356C8.29332 6.90356 6.9043 8.29259 6.9043 9.99993C6.9043 11.7073 8.29332 13.0963 10.0006 13.0963C11.708 13.0963 13.097 11.7073 13.097 9.99993C13.097 8.29259 11.708 6.90356 10.0006 6.90356ZM10.0006 11.9244C8.93949 11.9244 8.07617 11.0611 8.07617 9.99989C8.07617 8.93872 8.93949 8.0754 10.0006 8.0754C11.0618 8.0754 11.9251 8.93872 11.9251 9.99989C11.9251 11.0611 11.0618 11.9244 10.0006 11.9244Z" fill="#5F5F5F"/>
</g>
<defs>
<clipPath id="clip0">
<rect width="20" height="20" fill="white"/>
</clipPath>
</defs>
</svg>
