<svg width="27" height="33" viewBox="0 0 27 33" fill="none" xmlns="http://www.w3.org/2000/svg">
<path d="M25.1905 0.853479C24.6381 0.599097 23.9874 0.698006 23.5356 1.10492L21.391 3.00391L18.4732 0.39386C17.887 -0.131287 16.9995 -0.131287 16.4133 0.39386L13.4979 3.00143L10.5817 0.39386C9.99539 -0.131287 9.10783 -0.131287 8.52149 0.39386L5.60289 3.00391L3.45625 1.105C2.82284 0.541992 1.85291 0.599097 1.2899 1.2325C1.03784 1.51609 0.899753 1.88306 0.902381 2.26247V30.7375C0.897358 31.5862 1.5813 32.2783 2.42999 32.2833C2.80947 32.2855 3.17644 32.1472 3.46011 31.8951L5.60474 29.9961L8.52257 32.6061C9.10876 33.1313 9.99624 33.1313 10.5824 32.6061L13.4979 29.9983L16.4138 32.6058C17.0001 33.1309 17.8877 33.1309 18.474 32.6058L21.3926 29.9959L23.5392 31.8948C24.1726 32.4579 25.1425 32.4011 25.7056 31.7677C25.9579 31.4841 26.096 31.1169 26.0933 30.7372V2.26247C26.101 1.65457 25.7459 1.10052 25.1905 0.853479ZM22.4133 28.8383C21.827 28.319 20.9446 28.3213 20.3611 28.8438L17.4433 31.4538L14.5278 28.8462C13.9416 28.321 13.054 28.321 12.4677 28.8462L9.55192 31.4538L6.63294 28.8438C6.05169 28.3214 5.17078 28.319 4.58667 28.8382L2.44784 30.7367V26.6176L2.44011 2.26286L4.58242 4.16138C5.16869 4.68073 6.05115 4.67841 6.63464 4.15589L9.55238 1.54592L12.4679 4.15349C13.0542 4.67864 13.9417 4.67864 14.528 4.15349L17.4438 1.54592L20.3628 4.15589C20.944 4.67833 21.8249 4.68073 22.409 4.16145L24.5479 2.26247V21.8366L24.5556 30.7368L22.4133 28.8383Z" fill="#F25410"/>
<path d="M20.8249 15.7271H6.17507C5.74829 15.7271 5.40234 16.0731 5.40234 16.4998C5.40234 16.9266 5.74829 17.2726 6.17507 17.2726H20.8249C21.2517 17.2726 21.5977 16.9266 21.5977 16.4998C21.5977 16.0731 21.2516 15.7271 20.8249 15.7271Z" fill="#F25410"/>
<path d="M13.8704 11.0907H6.17507C5.74829 11.0907 5.40234 11.4367 5.40234 11.8635C5.40234 12.2903 5.74829 12.6362 6.17507 12.6362H13.8704C14.2971 12.6362 14.6431 12.2903 14.6431 11.8635C14.6431 11.4367 14.2971 11.0907 13.8704 11.0907Z" fill="#F25410"/>
<path d="M20.8249 20.3635H6.17507C5.74829 20.3635 5.40234 20.7094 5.40234 21.1362C5.40234 21.563 5.74829 21.9089 6.17507 21.9089H20.8249C21.2517 21.9089 21.5977 21.563 21.5977 21.1362C21.5977 20.7094 21.2516 20.3635 20.8249 20.3635Z" fill="#F25410"/>
</svg>
