<svg width="19" height="19" viewBox="0 0 19 19" fill="none" xmlns="http://www.w3.org/2000/svg">
<path d="M14.8438 0H4.15625C1.86081 0 0 1.86081 0 4.15625V14.8438C0 17.1392 1.86081 19 4.15625 19H14.8438C17.1392 19 19 17.1392 19 14.8438V4.15625C19 1.86081 17.1392 0 14.8438 0ZM17.8125 14.8438C17.8125 16.4834 16.4834 17.8125 14.8438 17.8125H4.15625C2.51665 17.8125 1.1875 16.4834 1.1875 14.8438V4.15625C1.1875 2.51665 2.51665 1.1875 4.15625 1.1875H14.8438C16.4834 1.1875 17.8125 2.51665 17.8125 4.15625V14.8438Z" fill="#F25410"/>
<path d="M5.9375 4.15625H4.75C4.42206 4.15625 4.15625 4.42206 4.15625 4.75V5.9375C4.15625 6.26544 4.42206 6.53125 4.75 6.53125H5.9375C6.26544 6.53125 6.53125 6.26544 6.53125 5.9375V4.75C6.53125 4.42206 6.26544 4.15625 5.9375 4.15625Z" fill="#F25410"/>
<path d="M5.9375 8.3125H4.75C4.42206 8.3125 4.15625 8.57831 4.15625 8.90625V10.0938C4.15625 10.4217 4.42206 10.6875 4.75 10.6875H5.9375C6.26544 10.6875 6.53125 10.4217 6.53125 10.0938V8.90625C6.53125 8.57831 6.26544 8.3125 5.9375 8.3125Z" fill="#F25410"/>
<path d="M5.9375 12.4688H4.75C4.42206 12.4688 4.15625 12.7346 4.15625 13.0625V14.25C4.15625 14.5779 4.42206 14.8438 4.75 14.8438H5.9375C6.26544 14.8438 6.53125 14.5779 6.53125 14.25V13.0625C6.53125 12.7346 6.26544 12.4688 5.9375 12.4688Z" fill="#F25410"/>
<path d="M14.8438 4.75H7.71875V5.9375H14.8438V4.75Z" fill="#F25410"/>
<path d="M14.8438 8.90625H7.71875V10.0938H14.8438V8.90625Z" fill="#F25410"/>
<path d="M14.8438 13.0625H7.71875V14.25H14.8438V13.0625Z" fill="#F25410"/>
</svg>
