<svg width="38" height="38" viewBox="0 0 38 38" fill="none" xmlns="http://www.w3.org/2000/svg">
<path d="M34.1401 29.3151C34.1372 29.3077 34.1342 29.3003 34.1311 29.293C33.448 27.6946 31.8459 27.1038 29.9499 27.7514L24.7793 29.1813C24.4803 28.2759 23.7346 27.5055 22.6803 27.1143C22.6738 27.1119 22.6672 27.1095 22.6606 27.1073L16.9769 25.1782C16.5038 24.5667 15.0219 23.002 12.2474 23.002C10.3085 23.002 8.59319 24.3322 7.61187 25.782H0.742188C0.332277 25.782 0 26.1143 0 26.5242V35.8815C0 36.2914 0.332277 36.6237 0.742188 36.6237H5.15501C5.56492 36.6237 5.8972 36.2914 5.8972 35.8815V35.2407H7.96664C8.37655 35.2407 8.70883 34.9084 8.70883 34.4985V34.2849C9.91518 34.3901 10.312 34.619 11.4199 35.2578C12.2719 35.7492 13.5597 36.4917 15.8787 37.5344C15.8895 37.5392 15.9004 37.5438 15.9113 37.5482C16.3564 37.7232 17.2265 37.9983 18.2992 37.9983C19.0458 37.9983 19.8908 37.8649 20.7581 37.4718L32.1871 33.3797C32.2074 33.3724 32.2275 33.3642 32.2471 33.3552C33.3394 32.8526 34.9671 31.4363 34.1401 29.3151ZM4.41282 35.1392H1.48438V27.2663H4.41282V35.1392ZM7.22445 33.7562H5.8972V27.2663H7.22445V33.7562ZM31.654 31.9938L20.2301 36.084C20.2201 36.0876 20.2065 36.0929 20.1966 36.097C20.1866 36.101 20.1766 36.1053 20.1667 36.1099C18.5757 36.8411 17.0633 36.4033 16.4706 36.1729C14.2306 35.1649 13.035 34.4755 12.1614 33.9718C10.9469 33.2715 10.3617 32.9339 8.70883 32.7974V26.8197C9.41235 25.6666 10.7766 24.4863 12.2475 24.4863C14.7699 24.4863 15.8387 26.1269 15.8807 26.1931C15.9714 26.3405 16.1107 26.4516 16.2745 26.5072L22.173 28.5092C23.1151 28.8628 23.6129 29.6695 23.3841 30.4741C23.2785 30.8456 23.0345 31.1538 22.6971 31.3418C22.3626 31.5281 21.9759 31.5742 21.6073 31.4722L14.9578 29.365C14.5668 29.2412 14.1499 29.4576 14.0261 29.8483C13.9022 30.2391 14.1186 30.6562 14.5094 30.7801L21.1705 32.8909C21.1775 32.8932 21.1846 32.8953 21.1917 32.8973C21.4576 32.9729 21.7284 33.0103 21.9975 33.0103C22.4901 33.0103 22.9774 32.8848 23.4196 32.6384C24.1034 32.2575 24.5978 31.633 24.8118 30.88C24.8289 30.8199 24.8441 30.7598 24.8572 30.6997L30.4298 29.1559C31.2346 28.881 32.2911 28.782 32.7615 29.8653C33.2484 31.1372 31.9829 31.8369 31.654 31.9938Z" fill="#F25410"/>
<path d="M36.3784 2.51536H31.9656C31.5557 2.51536 31.2234 2.84764 31.2234 3.25755V3.89835H29.154C28.7441 3.89835 28.4118 4.23063 28.4118 4.64054V4.85414C27.2054 4.74883 26.8087 4.52008 25.7008 3.88121C24.8488 3.38988 23.561 2.64732 21.2419 1.60462C21.2311 1.59972 21.2203 1.5952 21.2092 1.59089C20.4543 1.29387 18.4759 0.709471 16.3628 1.66711L13.3763 2.73646L10.8588 0.219108C10.569 -0.0707165 10.099 -0.0707165 9.80922 0.219108L1.54437 8.48388C1.27704 8.75129 1.22575 9.21494 1.54437 9.53356L15.6672 23.6564C15.8932 23.8825 16.4224 23.9508 16.7169 23.6564L24.2624 16.111C24.4585 16.128 24.6621 16.1371 24.8731 16.1371C26.8121 16.1371 28.5273 14.8069 29.5086 13.3572H36.3784C36.7883 13.3572 37.1206 13.0249 37.1206 12.615V3.25755C37.1206 2.84764 36.7883 2.51536 36.3784 2.51536ZM10.334 1.79351L12.0255 3.4851C11.5227 3.79608 10.9414 3.96248 10.334 3.96248C9.72647 3.96248 9.14519 3.79615 8.64236 3.4851L10.334 1.79351ZM4.81044 10.7004L3.11885 9.00868L4.81044 7.31709C5.12142 7.81992 5.28782 8.40128 5.28782 9.00868C5.28782 9.61609 5.12149 10.1974 4.81044 10.7004ZM16.1921 22.0819L14.5008 20.3906C15.5334 19.7534 16.8507 19.7534 17.8833 20.3906L16.1921 22.0819ZM18.9527 19.3214C17.3126 18.1317 15.0716 18.1317 13.4315 19.3214L5.87971 11.7695C6.45929 10.9724 6.77219 10.0149 6.77219 9.00868C6.77219 8.00235 6.45936 7.04493 5.87971 6.24782L7.57316 4.55445C8.37027 5.13402 9.32769 5.44693 10.334 5.44693C11.3404 5.44693 12.2978 5.13402 13.0949 4.55445L14.7002 6.15972C14.3538 6.21086 14.016 6.32501 13.701 6.50054C13.169 6.79697 12.7516 7.24087 12.4917 7.77791C11.6545 7.93296 10.8795 8.33827 10.2715 8.94619C8.62195 10.5958 8.62195 13.2797 10.2715 14.9293C11.0963 15.7541 12.1796 16.1665 13.2631 16.1665C14.3464 16.1665 15.4299 15.7541 16.2547 14.9293C16.7913 14.3927 17.1672 13.7332 17.3555 13.0145L19.8614 13.865C19.5793 15.1718 19.8682 16.5466 20.6476 17.6265L18.9527 19.3214ZM14.4403 12.0248C14.4469 12.0272 14.4534 12.0295 14.46 12.0318L15.9441 12.5355C15.832 13.0413 15.5784 13.5063 15.2051 13.8797C14.1342 14.9504 12.3919 14.9506 11.3212 13.8797C10.2504 12.809 10.2504 11.0667 11.3212 9.99587C11.5795 9.73744 11.8843 9.53549 12.2164 9.39855C12.3534 10.5387 13.1744 11.555 14.4403 12.0248ZM21.717 16.557C21.4305 16.0902 21.2685 15.5574 21.2428 15.0136C21.5984 15.2706 22.0328 15.5224 22.5518 15.7223L21.717 16.557ZM28.4117 12.3191C27.7083 13.4723 26.344 14.6526 24.8731 14.6526C24.5979 14.6526 24.34 14.633 24.0989 14.5981C24.0979 14.5979 24.0969 14.5978 24.096 14.5977C22.4931 14.3648 21.6309 13.4539 21.3468 13.0932C21.3316 13.0709 21.2671 12.9865 21.2575 12.9725C21.1711 12.818 21.0293 12.6937 20.8485 12.6323L14.9475 10.6295C14.0058 10.2761 13.5081 9.46973 13.7362 8.6655C13.7364 8.66498 13.7365 8.66446 13.7367 8.66394C13.7369 8.66334 13.737 8.66268 13.7372 8.66208C13.8432 8.29173 14.0868 7.98454 14.4235 7.79699C14.7579 7.61063 15.1445 7.56439 15.5132 7.66659L22.1627 9.77373C22.5535 9.89775 22.9707 9.68118 23.0945 9.29042C23.2183 8.89966 23.0019 8.48255 22.6111 8.35868L17.3227 6.68282L17.2765 6.63665C17.2761 6.63621 17.2756 6.63569 17.2751 6.63524L14.5372 3.89731L16.8905 3.05463C16.8985 3.05174 16.9082 3.0481 16.9161 3.04491C16.9181 3.0441 16.922 3.04261 16.9239 3.04179C16.934 3.03771 16.9439 3.03341 16.9538 3.02888C18.5448 2.29768 20.0571 2.73534 20.6498 2.96587C22.89 3.97383 24.0856 4.66325 24.9592 5.16697C26.1737 5.86738 26.7589 6.20485 28.4117 6.34134V12.3191ZM31.2234 11.8726H29.8962V5.38273H31.2234V11.8726ZM35.6362 11.8726H32.7078V3.99974H35.6362V11.8726Z" fill="#F25410"/>
</svg>
