<svg width="28" height="28" viewBox="0 0 28 28" fill="none" xmlns="http://www.w3.org/2000/svg">
<g clip-path="url(#clip0)">
<path d="M8.4056 18.4359H23.8336C25.583 18.4359 27.0102 17.0088 27.0102 15.2594V8.76821C27.0102 8.76246 27.0102 8.75095 27.0102 8.74519C27.0102 8.72793 27.0102 8.71642 27.0102 8.69916C27.0102 8.68765 27.0102 8.67614 27.0044 8.66463C27.0044 8.65312 26.9986 8.63586 26.9986 8.62435C26.9986 8.61284 26.9929 8.60133 26.9929 8.58982C26.9871 8.57831 26.9871 8.5668 26.9814 8.54954C26.9756 8.53803 26.9756 8.52652 26.9699 8.51501C26.9641 8.5035 26.9641 8.49199 26.9584 8.48048C26.9526 8.46897 26.9469 8.45746 26.9411 8.4402C26.9353 8.42869 26.9296 8.41718 26.9238 8.41143C26.9181 8.39992 26.9123 8.38841 26.9066 8.3769C26.9008 8.36539 26.8951 8.35964 26.8893 8.34813C26.8836 8.33662 26.872 8.32511 26.8663 8.3136C26.8605 8.30209 26.8548 8.29634 26.8433 8.28483C26.8375 8.27332 26.826 8.26756 26.8203 8.25605C26.8145 8.24454 26.803 8.23879 26.7972 8.22728C26.7915 8.21577 26.78 8.21002 26.7742 8.20426C26.7627 8.19275 26.757 8.187 26.7454 8.17549C26.7339 8.16973 26.7282 8.15823 26.7167 8.15247C26.7052 8.14672 26.6937 8.13521 26.6821 8.12945C26.6706 8.1237 26.6649 8.11794 26.6534 8.11219C26.6419 8.10643 26.6304 8.10068 26.6188 8.08917C26.6073 8.08342 26.5958 8.07766 26.5843 8.07191C26.5728 8.06615 26.5613 8.0604 26.5498 8.05464C26.5383 8.04889 26.5268 8.04313 26.5153 8.03738C26.5037 8.03162 26.4922 8.03162 26.4807 8.02587C26.4692 8.02011 26.452 8.01436 26.4404 8.01436C26.4289 8.01436 26.4174 8.00861 26.4117 8.00861C26.3944 8.00285 26.3829 8.00285 26.3656 8.00285C26.3599 8.00285 26.3541 7.9971 26.3426 7.9971L6.78856 5.2982V2.57053C6.78856 2.54176 6.78856 2.51298 6.78281 2.48996C6.78281 2.48421 6.78281 2.47846 6.77705 2.46695C6.77705 2.44968 6.7713 2.43242 6.7713 2.41516C6.76554 2.39789 6.76555 2.38638 6.75979 2.36912C6.75979 2.35761 6.75404 2.35185 6.75404 2.34035C6.74828 2.32308 6.74253 2.30582 6.73677 2.28855C6.73677 2.2828 6.73102 2.27129 6.73102 2.26554C6.72526 2.24827 6.71951 2.23676 6.708 2.2195C6.70224 2.21374 6.70224 2.20224 6.69649 2.19648C6.69074 2.18497 6.68498 2.17346 6.67347 2.16195C6.66772 2.15044 6.66196 2.14469 6.65621 2.13318C6.65045 2.12167 6.6447 2.11592 6.63894 2.10441C6.63319 2.0929 6.62168 2.08139 6.61593 2.06988C6.61017 2.06413 6.60442 2.05837 6.59866 2.05262C6.58715 2.04111 6.57564 2.0296 6.56413 2.01809C6.55838 2.01233 6.55263 2.00658 6.54687 2.00083C6.53536 1.98932 6.52385 1.97781 6.50659 1.9663C6.50083 1.96054 6.48933 1.95479 6.48357 1.94903C6.47206 1.93753 6.46055 1.93177 6.44904 1.92026C6.43178 1.90875 6.41452 1.89724 6.40301 1.89149C6.39725 1.88573 6.3915 1.88573 6.38574 1.87998C6.36272 1.86847 6.33395 1.85696 6.31093 1.84545L2.06981 0.0615326C1.67274 -0.10535 1.21813 0.0787963 1.05125 0.475862C0.884365 0.872928 1.06851 1.32754 1.46558 1.49442L5.22907 3.08269V6.60449V7.16268V11.4441V15.2709V20.1047C5.22907 21.716 6.43753 23.0511 7.99702 23.2525C7.71505 23.7244 7.54817 24.2768 7.54817 24.8638C7.54817 26.5959 8.95804 28 10.6844 28C12.4108 28 13.8207 26.5901 13.8207 24.8638C13.8207 24.2883 13.6653 23.7416 13.3891 23.2813H20.3751C20.0989 23.7474 19.9435 24.2883 19.9435 24.8638C19.9435 26.5959 21.3534 28 23.0798 28C24.8061 28 26.216 26.5901 26.216 24.8638C26.216 23.1374 24.8061 21.7275 23.0798 21.7275H8.4056C7.50789 21.7275 6.78281 20.9967 6.78281 20.1047V17.9986C7.25468 18.2748 7.81288 18.4359 8.4056 18.4359ZM12.2727 24.858C12.2727 25.7327 11.5591 26.4405 10.6902 26.4405C9.82123 26.4405 9.10766 25.727 9.10766 24.858C9.10766 23.9891 9.82123 23.2755 10.6902 23.2755C11.5591 23.2755 12.2727 23.9833 12.2727 24.858ZM24.668 24.858C24.668 25.7327 23.9545 26.4405 23.0855 26.4405C22.2166 26.4405 21.503 25.727 21.503 24.858C21.503 23.9891 22.2166 23.2755 23.0855 23.2755C23.9545 23.2755 24.668 23.9833 24.668 24.858ZM23.8336 16.8822H8.4056C7.50789 16.8822 6.78281 16.1513 6.78281 15.2594V11.4326V7.15117V6.86344L25.4564 9.43574V15.2536C25.4564 16.1571 24.7256 16.8822 23.8336 16.8822Z" fill="white"/>
</g>
<defs>
<clipPath id="clip0">
<rect width="28" height="28" fill="white"/>
</clipPath>
</defs>
</svg>
