<svg width="28" height="32" viewBox="0 0 28 32" fill="none" xmlns="http://www.w3.org/2000/svg">
<path d="M12.2192 2.46206H7.58234C7.2062 2.46206 6.89844 2.76982 6.89844 3.14597C6.89844 3.52212 7.2062 3.82987 7.58234 3.82987H12.2192C12.5954 3.82987 12.9031 3.52212 12.9031 3.14597C12.9031 2.76982 12.6022 2.46206 12.2192 2.46206Z" fill="#F25410"/>
<path d="M9.90233 26.009C8.73285 26.009 7.78906 26.9528 7.78906 28.1223C7.7959 29.2849 8.73969 30.2355 9.90917 30.2355C11.0718 30.2355 12.0156 29.2917 12.0156 28.1223C12.0156 26.9528 11.0718 26.009 9.90233 26.009ZM9.90233 28.8745C9.49199 28.8745 9.15688 28.5394 9.15688 28.1291C9.16371 27.7119 9.49883 27.3836 9.90917 27.3836C10.3195 27.3836 10.6478 27.7187 10.6478 28.1291C10.6478 28.5394 10.3127 28.8745 9.90233 28.8745Z" fill="#F25410"/>
<path d="M24.5226 9.23274H19.1335V2.81086C19.1335 1.25839 17.8819 0 16.3294 0H16.3226H3.48566C1.9332 0 0.667969 1.25839 0.667969 2.81086V29.1891C0.667969 30.7416 1.9332 32.0068 3.48566 32H16.3158C17.8682 32 19.1266 30.7485 19.1266 29.196V29.1891V22.7741H24.5158C26.0751 22.7741 27.3335 21.4815 27.3335 19.9222V12.0846C27.3403 10.5253 26.0751 9.23274 24.5226 9.23274ZM2.03578 2.81086C2.03578 2.01069 2.68549 1.36097 3.48566 1.36781C3.48566 1.36781 3.48566 1.36781 3.4925 1.36781H16.3226C17.1159 1.36781 17.7656 2.01069 17.7656 2.80402C17.7656 2.81086 17.7656 2.81086 17.7656 2.8177V5.34131H2.03578V2.81086ZM17.7656 29.196C17.7656 29.9893 17.1296 30.639 16.3294 30.639C16.3226 30.639 16.3226 30.639 16.3158 30.639H3.48566C2.68549 30.639 2.03578 29.9962 2.03578 29.196C2.03578 29.196 2.03578 29.196 2.03578 29.1891V25.5781H17.7656V29.196ZM17.7656 24.2103H2.03578V6.70229H17.7656V9.23274H10.2632C8.70387 9.23274 7.43865 10.5253 7.43865 12.0846V19.929C7.43865 21.4884 8.70387 22.7809 10.2632 22.7809H17.7656V24.2103ZM25.9794 19.8812H25.9725C25.9725 20.6813 25.3228 21.3379 24.5158 21.3379H10.2632C9.46301 21.3379 8.80646 20.6882 8.80646 19.8812V12.0573C8.80646 11.2571 9.45617 10.6006 10.2632 10.6006H24.5226C25.3228 10.6006 25.9794 11.2503 25.9794 12.0573V19.8812Z" fill="#F25410"/>
<path d="M20.0605 18.5339H10.0823C9.7062 18.5339 9.39844 18.8416 9.39844 19.2178C9.39844 19.5939 9.7062 19.9017 10.0823 19.9017H20.0605C20.4367 19.9017 20.7444 19.5939 20.7444 19.2178C20.7444 18.8416 20.4367 18.5339 20.0605 18.5339Z" fill="#F25410"/>
<path d="M15.0566 12.7275C14.3795 12.3103 13.5246 12.3103 12.8475 12.7275C11.849 12.1188 10.5496 12.4266 9.94093 13.4251C9.33225 14.4236 9.64001 15.723 10.6385 16.3317C10.9668 16.5369 11.3429 16.6463 11.7396 16.6463C12.1294 16.6463 12.5124 16.5369 12.8475 16.3317C13.846 16.9404 15.1455 16.6326 15.7541 15.6341C16.3628 14.6356 16.0551 13.3362 15.0566 12.7275ZM13.9555 15.2785C13.7298 15.2785 13.5246 15.1759 13.381 15.0049C13.1416 14.7108 12.7108 14.6698 12.4167 14.9023C12.3825 14.9297 12.3483 14.9639 12.3141 15.0049C12.1705 15.1759 11.9585 15.2785 11.7396 15.2785C11.3293 15.2785 10.9941 14.9434 10.9941 14.533C10.9873 14.1227 11.3224 13.7876 11.7396 13.7876C11.9653 13.7876 12.1773 13.8901 12.3141 14.0611C12.444 14.2184 12.6424 14.3142 12.8475 14.3142C13.0527 14.3142 13.251 14.2184 13.381 14.0611C13.5178 13.8901 13.7298 13.7876 13.9555 13.7876C14.3658 13.7876 14.7009 14.1227 14.7009 14.533C14.7009 14.9434 14.3658 15.2785 13.9555 15.2785Z" fill="#F25410"/>
</svg>
