<svg width="6" height="16" viewBox="0 0 6 16" fill="none" xmlns="http://www.w3.org/2000/svg">
<path d="M5.8168 2.87064L3.6293 0.683138C3.38555 0.439076 2.9893 0.439076 2.74555 0.683138L0.558047 2.87064C0.313984 3.1147 0.313984 3.51033 0.558047 3.75439C0.801797 3.99845 1.19805 3.99845 1.4418 3.75439L2.56242 2.63376V14.875C2.56242 15.22 2.84242 15.5 3.18742 15.5C3.53242 15.5 3.81242 15.22 3.81242 14.875V2.63376L4.93305 3.75439C5.05492 3.87658 5.21492 3.93751 5.37492 3.93751C5.53492 3.93751 5.69492 3.87658 5.8168 3.75439C6.06086 3.51033 6.06086 3.1147 5.8168 2.87064Z" fill="#F25410"/>
</svg>
