<svg xmlns="http://www.w3.org/2000/svg"><defs><style>.icon { display: none; }.icon:target { display: inline; }</style></defs><svg viewBox="0 0 21.222666 22.000166"><g id="cart" class="icon">
<path d="M6.60457 14.4853H18.7266C20.1011 14.4853 21.2224 13.364 21.2224 11.9895V6.88928C21.2224 6.88476 21.2224 6.87572 21.2224 6.8712C21.2224 6.85763 21.2224 6.84859 21.2224 6.83503C21.2224 6.82598 21.2224 6.81694 21.2179 6.8079C21.2179 6.79885 21.2134 6.78529 21.2134 6.77625C21.2134 6.7672 21.2089 6.75816 21.2089 6.74912C21.2044 6.74008 21.2044 6.73103 21.1998 6.71747C21.1953 6.70843 21.1953 6.69938 21.1908 6.69034C21.1863 6.6813 21.1863 6.67225 21.1817 6.66321C21.1772 6.65417 21.1727 6.64513 21.1682 6.63156C21.1637 6.62252 21.1591 6.61347 21.1546 6.60895C21.1501 6.59991 21.1456 6.59087 21.1411 6.58182C21.1365 6.57278 21.132 6.56826 21.1275 6.55922C21.123 6.55017 21.1139 6.54113 21.1094 6.53209C21.1049 6.52305 21.1004 6.51852 21.0913 6.50948C21.0868 6.50044 21.0778 6.49592 21.0732 6.48687C21.0687 6.47783 21.0597 6.47331 21.0551 6.46427C21.0506 6.45522 21.0416 6.4507 21.0371 6.44618C21.028 6.43714 21.0235 6.43262 21.0145 6.42357C21.0054 6.41905 21.0009 6.41001 20.9918 6.40549C20.9828 6.40097 20.9738 6.39192 20.9647 6.3874C20.9557 6.38288 20.9512 6.37836 20.9421 6.37384C20.9331 6.36932 20.924 6.36479 20.915 6.35575C20.9059 6.35123 20.8969 6.34671 20.8878 6.34219C20.8788 6.33767 20.8698 6.33314 20.8607 6.32862C20.8517 6.3241 20.8426 6.31958 20.8336 6.31506C20.8246 6.31054 20.8155 6.31054 20.8065 6.30602C20.7974 6.30149 20.7839 6.29697 20.7748 6.29697C20.7658 6.29697 20.7567 6.29245 20.7522 6.29245C20.7386 6.28793 20.7296 6.28793 20.716 6.28793C20.7115 6.28793 20.707 6.28341 20.698 6.28341L5.33405 4.16285V2.01968C5.33405 1.99707 5.33405 1.97446 5.32952 1.95638C5.32952 1.95186 5.32952 1.94733 5.325 1.93829C5.325 1.92473 5.32048 1.91116 5.32048 1.8976C5.31596 1.88403 5.31596 1.87499 5.31144 1.86143C5.31144 1.85238 5.30692 1.84786 5.30692 1.83882C5.3024 1.82525 5.29787 1.81169 5.29335 1.79813C5.29335 1.7936 5.28883 1.78456 5.28883 1.78004C5.28431 1.76648 5.27979 1.75743 5.27075 1.74387C5.26622 1.73935 5.26622 1.7303 5.2617 1.72578C5.25718 1.71674 5.25266 1.7077 5.24362 1.69865C5.2391 1.68961 5.23457 1.68509 5.23005 1.67605C5.22553 1.667 5.22101 1.66248 5.21649 1.65344C5.21197 1.6444 5.20292 1.63535 5.1984 1.62631C5.19388 1.62179 5.18936 1.61727 5.18484 1.61275C5.17579 1.6037 5.16675 1.59466 5.15771 1.58562C5.15319 1.5811 5.14867 1.57657 5.14414 1.57205C5.1351 1.56301 5.12606 1.55397 5.11249 1.54492C5.10797 1.5404 5.09893 1.53588 5.09441 1.53136C5.08537 1.52232 5.07632 1.5178 5.06728 1.50875C5.05372 1.49971 5.04015 1.49067 5.03111 1.48615C5.02659 1.48162 5.02207 1.48162 5.01754 1.4771C4.99946 1.46806 4.97685 1.45902 4.95877 1.44997L1.62645 0.048323C1.31447 -0.0827991 0.957277 0.0618874 0.826155 0.373868C0.695033 0.685848 0.839719 1.04304 1.1517 1.17417L4.10873 2.42209V5.18922V5.6278V8.99176V11.9985V15.7965C4.10873 17.0626 5.05824 18.1115 6.28355 18.2698C6.062 18.6405 5.93088 19.0746 5.93088 19.5358C5.93088 20.8967 7.03863 22 8.39507 22C9.75151 22 10.8593 20.8922 10.8593 19.5358C10.8593 19.0836 10.7372 18.6541 10.5202 18.2924H16.0092C15.7922 18.6586 15.6701 19.0836 15.6701 19.5358C15.6701 20.8967 16.7778 22 18.1343 22C19.4907 22 20.5985 20.8922 20.5985 19.5358C20.5985 18.1794 19.4907 17.0716 18.1343 17.0716H6.60457C5.89923 17.0716 5.32952 16.4974 5.32952 15.7965V14.1417C5.70028 14.3587 6.13886 14.4853 6.60457 14.4853ZM9.64299 19.5313C9.64299 20.2185 9.08233 20.7747 8.39959 20.7747C7.71685 20.7747 7.15619 20.214 7.15619 19.5313C7.15619 18.8485 7.71685 18.2879 8.39959 18.2879C9.08233 18.2879 9.64299 18.844 9.64299 19.5313ZM19.3822 19.5313C19.3822 20.2185 18.8215 20.7747 18.1388 20.7747C17.4561 20.7747 16.8954 20.214 16.8954 19.5313C16.8954 18.8485 17.4561 18.2879 18.1388 18.2879C18.8215 18.2879 19.3822 18.844 19.3822 19.5313ZM18.7266 13.2645H6.60457C5.89923 13.2645 5.32952 12.6903 5.32952 11.9895V8.98272V5.61875V5.39268L20.0016 7.41377V11.985C20.0016 12.6948 19.4274 13.2645 18.7266 13.2645Z" fill="white"/>
</g></svg><svg viewBox="0 0 21.222666 22.000166"><g id="src-2" class="icon">
<path d="M6.60457 14.4853H18.7266C20.1011 14.4853 21.2224 13.364 21.2224 11.9895V6.88928C21.2224 6.88476 21.2224 6.87572 21.2224 6.8712C21.2224 6.85763 21.2224 6.84859 21.2224 6.83503C21.2224 6.82598 21.2224 6.81694 21.2179 6.8079C21.2179 6.79885 21.2134 6.78529 21.2134 6.77625C21.2134 6.7672 21.2089 6.75816 21.2089 6.74912C21.2044 6.74008 21.2044 6.73103 21.1998 6.71747C21.1953 6.70843 21.1953 6.69938 21.1908 6.69034C21.1863 6.6813 21.1863 6.67225 21.1817 6.66321C21.1772 6.65417 21.1727 6.64513 21.1682 6.63156C21.1637 6.62252 21.1591 6.61347 21.1546 6.60895C21.1501 6.59991 21.1456 6.59087 21.1411 6.58182C21.1365 6.57278 21.132 6.56826 21.1275 6.55922C21.123 6.55017 21.1139 6.54113 21.1094 6.53209C21.1049 6.52305 21.1004 6.51852 21.0913 6.50948C21.0868 6.50044 21.0778 6.49592 21.0732 6.48687C21.0687 6.47783 21.0597 6.47331 21.0551 6.46427C21.0506 6.45522 21.0416 6.4507 21.0371 6.44618C21.028 6.43714 21.0235 6.43262 21.0145 6.42357C21.0054 6.41905 21.0009 6.41001 20.9918 6.40549C20.9828 6.40097 20.9738 6.39192 20.9647 6.3874C20.9557 6.38288 20.9512 6.37836 20.9421 6.37384C20.9331 6.36932 20.924 6.36479 20.915 6.35575C20.9059 6.35123 20.8969 6.34671 20.8878 6.34219C20.8788 6.33767 20.8698 6.33314 20.8607 6.32862C20.8517 6.3241 20.8426 6.31958 20.8336 6.31506C20.8246 6.31054 20.8155 6.31054 20.8065 6.30602C20.7974 6.30149 20.7839 6.29697 20.7748 6.29697C20.7658 6.29697 20.7567 6.29245 20.7522 6.29245C20.7386 6.28793 20.7296 6.28793 20.716 6.28793C20.7115 6.28793 20.707 6.28341 20.698 6.28341L5.33405 4.16285V2.01968C5.33405 1.99707 5.33405 1.97446 5.32952 1.95638C5.32952 1.95186 5.32952 1.94733 5.325 1.93829C5.325 1.92473 5.32048 1.91116 5.32048 1.8976C5.31596 1.88403 5.31596 1.87499 5.31144 1.86143C5.31144 1.85238 5.30692 1.84786 5.30692 1.83882C5.3024 1.82525 5.29787 1.81169 5.29335 1.79813C5.29335 1.7936 5.28883 1.78456 5.28883 1.78004C5.28431 1.76648 5.27979 1.75743 5.27075 1.74387C5.26622 1.73935 5.26622 1.7303 5.2617 1.72578C5.25718 1.71674 5.25266 1.7077 5.24362 1.69865C5.2391 1.68961 5.23457 1.68509 5.23005 1.67605C5.22553 1.667 5.22101 1.66248 5.21649 1.65344C5.21197 1.6444 5.20292 1.63535 5.1984 1.62631C5.19388 1.62179 5.18936 1.61727 5.18484 1.61275C5.17579 1.6037 5.16675 1.59466 5.15771 1.58562C5.15319 1.5811 5.14867 1.57657 5.14414 1.57205C5.1351 1.56301 5.12606 1.55397 5.11249 1.54492C5.10797 1.5404 5.09893 1.53588 5.09441 1.53136C5.08537 1.52232 5.07632 1.5178 5.06728 1.50875C5.05372 1.49971 5.04015 1.49067 5.03111 1.48615C5.02659 1.48162 5.02207 1.48162 5.01754 1.4771C4.99946 1.46806 4.97685 1.45902 4.95877 1.44997L1.62645 0.048323C1.31447 -0.0827991 0.957277 0.0618874 0.826155 0.373868C0.695033 0.685848 0.839719 1.04304 1.1517 1.17417L4.10873 2.42209V5.18922V5.6278V8.99176V11.9985V15.7965C4.10873 17.0626 5.05824 18.1115 6.28355 18.2698C6.062 18.6405 5.93088 19.0746 5.93088 19.5358C5.93088 20.8967 7.03863 22 8.39507 22C9.75151 22 10.8593 20.8922 10.8593 19.5358C10.8593 19.0836 10.7372 18.6541 10.5202 18.2924H16.0092C15.7922 18.6586 15.6701 19.0836 15.6701 19.5358C15.6701 20.8967 16.7778 22 18.1343 22C19.4907 22 20.5985 20.8922 20.5985 19.5358C20.5985 18.1794 19.4907 17.0716 18.1343 17.0716H6.60457C5.89923 17.0716 5.32952 16.4974 5.32952 15.7965V14.1417C5.70028 14.3587 6.13886 14.4853 6.60457 14.4853ZM9.64299 19.5313C9.64299 20.2185 9.08233 20.7747 8.39959 20.7747C7.71685 20.7747 7.15619 20.214 7.15619 19.5313C7.15619 18.8485 7.71685 18.2879 8.39959 18.2879C9.08233 18.2879 9.64299 18.844 9.64299 19.5313ZM19.3822 19.5313C19.3822 20.2185 18.8215 20.7747 18.1388 20.7747C17.4561 20.7747 16.8954 20.214 16.8954 19.5313C16.8954 18.8485 17.4561 18.2879 18.1388 18.2879C18.8215 18.2879 19.3822 18.844 19.3822 19.5313ZM18.7266 13.2645H6.60457C5.89923 13.2645 5.32952 12.6903 5.32952 11.9895V8.98272V5.61875V5.39268L20.0016 7.41377V11.985C20.0016 12.6948 19.4274 13.2645 18.7266 13.2645Z" fill="white"/>
</g></svg></svg>