<svg width="18" height="28" fill="none" xmlns="http://www.w3.org/2000/svg"><path d="M16.477 0H1.523a.558.558 0 00-.558.558v26.884c0 .308.25.558.558.558h14.954c.308 0 .558-.25.558-.558V.558A.558.558 0 0016.477 0zm-.558 26.884H2.081V1.116h13.838v25.768z" fill="#F25410"/><path d="M7.717 2.566H4.036a.558.558 0 00-.558.557v10.768c0 .308.25.558.558.558h3.681c.308 0 .558-.25.558-.558V3.124a.558.558 0 00-.558-.558zM7.16 13.334H4.594V3.68h2.565v9.652zm6.804-10.768h-3.681a.558.558 0 00-.558.557v10.768c0 .308.25.558.558.558h3.681c.308 0 .558-.25.558-.558V3.124a.558.558 0 00-.558-.558zm-.558 10.768h-2.565V3.68h2.566v9.652zM4.51 15.509c-.784 0-1.422.638-1.422 1.422 0 .784.638 1.422 1.422 1.422.784 0 1.422-.638 1.422-1.422 0-.784-.638-1.422-1.422-1.422zm0 1.729a.307.307 0 110-.615.307.307 0 010 .615z" fill="#F25410"/></svg>