<svg width="29" height="29" fill="none" xmlns="http://www.w3.org/2000/svg"><g clip-path="url(#clip0)" fill="#F25410"><path d="M3.383 24.167a1.45 1.45 0 100 2.9 1.45 1.45 0 000-2.9zm0 1.933a.483.483 0 110-.967.483.483 0 010 .967z"/><path d="M28.506 23.672a1.692 1.692 0 00-1.198-2.889h-1.691c-.449.001-.88.179-1.198.495l-2.405 2.405H6.156a3.394 3.394 0 00-.46-.528l.726-4.994a1.91 1.91 0 00-.297-1.323L8.023 3.867h2.954c.381.31.857.48 1.348.483a2.175 2.175 0 100-4.35 2.15 2.15 0 00-1.35.483H5.558a1.687 1.687 0 00-.457 3.313L3.257 16.422a1.92 1.92 0 00-.66 1.184l-.725 4.989a3.38 3.38 0 104.565 4.472h16.136a3.377 3.377 0 105.854-3.331c.025-.023.055-.04.08-.064zM5.257 16.108a1.92 1.92 0 00-.47-.138 1.917 1.917 0 00-.488 0L6.07 3.867h.975l-1.787 12.24zM12.325.967a1.208 1.208 0 110 2.416 1.208 1.208 0 010-2.416zM4.833 2.175a.722.722 0 01.725-.725h4.725a2.15 2.15 0 00-.133.725c.002.248.047.493.133.725H5.558a.725.725 0 01-.725-.725zm-1.28 15.57a.967.967 0 111.914.277l-.66 4.53a3.264 3.264 0 00-1.913-.279l.658-4.528zm-.17 10.288a2.417 2.417 0 110-4.833 2.417 2.417 0 010 4.833zm3.241-3.383h15.59a.484.484 0 00.342-.142l2.547-2.547a.73.73 0 01.514-.211h1.691a.725.725 0 11.001 1.45h-1.19a.483.483 0 00-.341.142l-2.548 2.547a.745.745 0 01-.395.203 1.17 1.17 0 01-.118.008H6.728c.076-.485.04-.98-.104-1.45zm19.476.967a.483.483 0 11-.967 0 .483.483 0 01.967 0zm-.483 2.416a2.41 2.41 0 01-2.074-1.187c.135-.074.26-.166.37-.274l.376-.375a1.45 1.45 0 101.908-1.908l.122-.122h.99c.07-.002.14-.008.211-.018.331.417.512.934.513 1.468a2.42 2.42 0 01-2.416 2.416z"/></g><defs><clipPath id="clip0"><path fill="#fff" d="M0 0h29v29H0z"/></clipPath></defs></svg>