<svg width="43" height="43" fill="none" xmlns="http://www.w3.org/2000/svg"><path d="M37.505 0H5.495A5.5 5.5 0 000 5.495v32.01A5.5 5.5 0 005.495 43h32.01A5.5 5.5 0 0043 37.505V5.495A5.5 5.5 0 0037.505 0zm2.962 37.505a2.965 2.965 0 01-2.962 2.962H5.495a2.965 2.965 0 01-2.962-2.962v-4.62l8.336-7.092a.819.819 0 011.055-.006l5.221 4.336a1.267 1.267 0 001.706-.08l12.406-12.426a.811.811 0 01.622-.24.812.812 0 01.595.303l7.993 9.842v9.983zm0-14l-6.027-7.422a3.358 3.358 0 00-2.43-1.235 3.361 3.361 0 00-2.545.98l-11.59 11.608-4.333-3.598a3.347 3.347 0 00-4.315.026L2.533 29.56V5.495a2.965 2.965 0 012.962-2.962h32.01a2.965 2.965 0 012.962 2.962v18.01z" fill="#A4A4A4"/></svg>