<svg width="25" height="25" fill="none" xmlns="http://www.w3.org/2000/svg"><path d="M1.144 16.422l-.001.024a4.102 4.102 0 002.268 3.898l.015.007a2.71 2.71 0 011.21 1.197l.006.011a4.13 4.13 0 003.902 2.239l.024-.001a2.781 2.781 0 011.68.449 4.16 4.16 0 004.517 0 2.782 2.782 0 011.68-.45l.025.002a4.133 4.133 0 003.903-2.241l.003-.008a2.712 2.712 0 011.214-1.199l.012-.006a4.102 4.102 0 002.268-3.898l-.002-.023a2.669 2.669 0 01.443-1.62 4.113 4.113 0 000-4.545 2.668 2.668 0 01-.443-1.62l.002-.023a4.102 4.102 0 00-2.27-3.899l-.013-.006a2.704 2.704 0 01-1.208-1.193l-.008-.015a4.133 4.133 0 00-3.901-2.239l-.025.001a2.78 2.78 0 01-1.68-.449 4.16 4.16 0 00-4.517 0c-.5.326-1.088.483-1.68.449l-.025-.001A4.13 4.13 0 004.642 3.5l-.006.01a2.708 2.708 0 01-1.21 1.199l-.015.007a4.102 4.102 0 00-2.268 3.898l.002.022a2.667 2.667 0 01-.443 1.62 4.113 4.113 0 000 4.546 2.66 2.66 0 01.442 1.62zm.686-5.365c.49-.733.73-1.611.683-2.5l-.001-.023c-.048-1.083.543-2.088 1.497-2.548l.012-.006a4.088 4.088 0 001.828-1.81l.006-.013A2.764 2.764 0 018.47 2.671h.025a4.111 4.111 0 002.484-.663 2.814 2.814 0 013.055 0 4.12 4.12 0 002.484.664l.024-.001a2.76 2.76 0 012.614 1.484l.01.017A4.088 4.088 0 0020.99 5.98l.012.006A2.69 2.69 0 0122.5 8.534l-.001.025a4.112 4.112 0 00.683 2.5 2.663 2.663 0 010 2.944 4.117 4.117 0 00-.683 2.5l.001.024a2.691 2.691 0 01-1.498 2.55l-.01.004a4.092 4.092 0 00-1.83 1.812l-.005.01a2.763 2.763 0 01-2.616 1.487l-.024-.001a4.12 4.12 0 00-2.484.664c-.935.6-2.12.6-3.055 0a4.116 4.116 0 00-2.484-.664H8.47a2.76 2.76 0 01-2.616-1.487l-.007-.014a4.083 4.083 0 00-1.825-1.806l-.013-.006a2.69 2.69 0 01-1.498-2.55l.001-.024a4.116 4.116 0 00-.683-2.5 2.663 2.663 0 01.001-2.944z" fill="#F25410"/><path d="M8.084 19.816a.674.674 0 00.944-.225l8.12-13.374a.722.722 0 00.028-.708.684.684 0 00-.585-.375.681.681 0 00-.606.337l-8.12 13.374c-.2.33-.102.765.219.97zm.727-7.251c1.67 0 3.027-1.592 3.027-3.549 0-1.957-1.358-3.549-3.027-3.549S5.785 7.06 5.785 9.017c0 1.956 1.357 3.548 3.026 3.548zm0-5.688c.914 0 1.657.96 1.657 2.14 0 1.179-.743 2.139-1.657 2.139-.913 0-1.656-.96-1.656-2.14 0-1.18.743-2.14 1.656-2.14zm4.363 9.169c0 1.957 1.358 3.548 3.027 3.548 1.67 0 3.027-1.592 3.027-3.549 0-1.956-1.358-3.548-3.027-3.548s-3.027 1.591-3.027 3.549zm4.683 0c0 1.18-.743 2.139-1.656 2.139-.913 0-1.656-.96-1.656-2.14 0-1.18.743-2.139 1.656-2.139.913 0 1.656.96 1.656 2.14z" fill="#F25410"/></svg>