<svg width="26" height="26" fill="none" xmlns="http://www.w3.org/2000/svg"><path d="M24.304 10.174h-2.116a9.564 9.564 0 00-.692-1.672l1.495-1.495c.32-.32.497-.746.497-1.2 0-.453-.177-.88-.497-1.2l-1.6-1.599c-.638-.64-1.758-.64-2.398 0l-1.495 1.495a9.59 9.59 0 00-1.672-.692V1.696C15.826.76 15.066 0 14.13 0h-2.26c-.935 0-1.696.76-1.696 1.696v2.116a9.61 9.61 0 00-1.672.692L7.006 3.009a1.698 1.698 0 00-2.398 0l-1.6 1.6a1.7 1.7 0 000 2.398l1.495 1.496a9.59 9.59 0 00-.692 1.671H1.696A1.698 1.698 0 000 11.87v2.261c0 .934.76 1.695 1.696 1.695h2.116c.178.58.41 1.139.692 1.672l-1.495 1.496a1.698 1.698 0 000 2.398l1.6 1.6a1.7 1.7 0 002.398 0l1.496-1.495a9.59 9.59 0 001.671.692v2.115c0 .935.761 1.696 1.696 1.696h2.261c.935 0 1.696-.76 1.696-1.696v-2.116a9.59 9.59 0 001.672-.692l1.495 1.496c.64.64 1.76.64 2.398 0l1.6-1.6c.32-.32.496-.746.496-1.199 0-.454-.176-.88-.496-1.2l-1.495-1.495a9.584 9.584 0 00.692-1.672h2.115c.935 0 1.696-.76 1.696-1.696v-2.26c0-.935-.76-1.696-1.696-1.696zm.566 3.956a.566.566 0 01-.566.566h-2.543a.565.565 0 00-.547.424 8.492 8.492 0 01-.907 2.188.566.566 0 00.087.687l1.798 1.798a.562.562 0 01.165.4.562.562 0 01-.165.4l-1.6 1.6a.582.582 0 01-.8 0l-1.798-1.798a.566.566 0 00-.687-.087 8.466 8.466 0 01-2.188.906.564.564 0 00-.423.547v2.543a.566.566 0 01-.566.566h-2.26a.566.566 0 01-.566-.566v-2.543a.565.565 0 00-.424-.547 8.473 8.473 0 01-2.188-.906.565.565 0 00-.687.087l-1.798 1.797a.567.567 0 01-.8 0l-1.6-1.6a.566.566 0 010-.8l1.798-1.797a.564.564 0 00.087-.687 8.485 8.485 0 01-.906-2.188.564.564 0 00-.547-.424H1.696a.566.566 0 01-.566-.566v-2.26c0-.312.254-.566.566-.566h2.543a.565.565 0 00.547-.424c.2-.771.504-1.508.906-2.188a.564.564 0 00-.087-.687L3.808 6.208a.567.567 0 010-.8l1.6-1.6a.566.566 0 01.8 0l1.797 1.797a.564.564 0 00.687.087 8.486 8.486 0 012.188-.906.565.565 0 00.424-.547V1.696c0-.312.254-.566.566-.566h2.26c.312 0 .566.254.566.566v2.543c0 .258.174.483.424.547.772.2 1.508.505 2.188.906a.564.564 0 00.687-.087l1.797-1.797a.58.58 0 01.8 0l1.6 1.6a.562.562 0 01.165.4.562.562 0 01-.165.4l-1.797 1.797a.565.565 0 00-.087.687c.402.68.706 1.416.906 2.188.064.25.29.424.547.424h2.543c.312 0 .566.254.566.566v2.26z" fill="#F25410"/><path d="M13 7.913A5.093 5.093 0 007.913 13 5.093 5.093 0 0013 18.087 5.093 5.093 0 0018.087 13 5.093 5.093 0 0013 7.913zm0 9.043A3.96 3.96 0 019.043 13 3.96 3.96 0 0113 9.043 3.961 3.961 0 0116.956 13 3.961 3.961 0 0113 16.956z" fill="#F25410"/></svg>