<svg width="34" height="38" viewBox="0 0 34 38" fill="none" xmlns="http://www.w3.org/2000/svg">
<path d="M3.75 16.55V14.9806C3.3638 14.7167 3.048 14.3623 2.83013 13.9483C2.61226 13.5344 2.49893 13.0734 2.5 12.6056V7.75C2.33424 7.75 2.17527 7.68415 2.05806 7.56694C1.94085 7.44973 1.875 7.29076 1.875 7.125V5.875C1.875 4.38316 2.46763 2.95242 3.52253 1.89752C4.57742 0.842632 6.00816 0.25 7.5 0.25C8.99184 0.25 10.4226 0.842632 11.4775 1.89752C12.5324 2.95242 13.125 4.38316 13.125 5.875V6.5H16.25C16.4158 6.5 16.5747 6.56585 16.6919 6.68306C16.8092 6.80027 16.875 6.95924 16.875 7.125C16.875 7.29076 16.8092 7.44973 16.6919 7.56694C16.5747 7.68415 16.4158 7.75 16.25 7.75H12.5V10.875C12.4987 11.9267 12.1192 12.9429 11.4307 13.738C10.7422 14.533 9.79074 15.054 8.75 15.2056V16.5H9.375C10.5349 16.5013 11.6469 16.9627 12.4671 17.7829C13.2873 18.6031 13.7487 19.7151 13.75 20.875V25.25H15V12.125C15 11.9592 15.0658 11.8003 15.1831 11.6831C15.3003 11.5658 15.4592 11.5 15.625 11.5H33.125C33.2908 11.5 33.4497 11.5658 33.5669 11.6831C33.6842 11.8003 33.75 11.9592 33.75 12.125V27.125C33.75 27.2908 33.6842 27.4497 33.5669 27.5669C33.4497 27.6842 33.2908 27.75 33.125 27.75H27.4375C27.2924 28.4554 26.9086 29.0892 26.3508 29.5445C25.7929 29.9999 25.0951 30.2491 24.375 30.25H22.5V32.125C22.5 32.2908 22.4342 32.4497 22.3169 32.5669C22.1997 32.6842 22.0408 32.75 21.875 32.75H18.125C17.9592 32.75 17.8003 32.6842 17.6831 32.5669C17.5658 32.4497 17.5 32.2908 17.5 32.125V31.5H13.75V37.125C13.75 37.2908 13.6842 37.4497 13.5669 37.5669C13.4497 37.6842 13.2908 37.75 13.125 37.75H0.625C0.45924 37.75 0.300266 37.6842 0.18306 37.5669C0.0658493 37.4497 0 37.2908 0 37.125V20.875C0.00201035 19.8241 0.381931 18.8089 1.0704 18.0149C1.75887 17.2208 2.70995 16.7009 3.75 16.55ZM11.875 5.875C11.875 4.71468 11.4141 3.60188 10.5936 2.78141C9.77312 1.96094 8.66032 1.5 7.5 1.5C6.33968 1.5 5.22688 1.96094 4.40641 2.78141C3.58594 3.60188 3.125 4.71468 3.125 5.875V6.5H11.875V5.875ZM6.875 14H8.125C8.9535 13.999 9.74778 13.6694 10.3336 13.0836C10.9194 12.4978 11.249 11.7035 11.25 10.875V7.75H3.75V12.6025C3.74876 12.9066 3.83285 13.2049 3.99273 13.4635C4.1526 13.7222 4.38184 13.9308 4.65437 14.0656C4.75827 14.1175 4.84565 14.1974 4.90669 14.2962C4.96774 14.395 5.00005 14.5089 5 14.625V16.5H7.5V15.25H6.875C6.70924 15.25 6.55027 15.1842 6.43306 15.0669C6.31585 14.9497 6.25 14.7908 6.25 14.625C6.25 14.4592 6.31585 14.3003 6.43306 14.1831C6.55027 14.0658 6.70924 14 6.875 14ZM23.125 12.75V17.2069L24.0281 16.605C24.1308 16.5365 24.2515 16.4999 24.375 16.4999C24.4985 16.4999 24.6192 16.5365 24.7219 16.605L25.625 17.2069V12.75H23.125ZM32.5 12.75H26.875V18.375C26.875 18.4882 26.8443 18.5992 26.7862 18.6963C26.728 18.7933 26.6446 18.8728 26.5449 18.9262C26.4451 18.9796 26.3327 19.0048 26.2197 18.9994C26.1067 18.9939 25.9973 18.9578 25.9031 18.895L24.375 17.875L22.8469 18.8937C22.7528 18.9565 22.6435 18.9926 22.5306 18.9981C22.4177 19.0036 22.3054 18.9784 22.2057 18.9252C22.106 18.872 22.0225 18.7927 21.9643 18.6958C21.9061 18.5989 21.8752 18.488 21.875 18.375V12.75H16.25V25.25H17.5V24.625C17.5 24.4592 17.5658 24.3003 17.6831 24.1831C17.8003 24.0658 17.9592 24 18.125 24H21.875C22.0408 24 22.1997 24.0658 22.3169 24.1831C22.4342 24.3003 22.5 24.4592 22.5 24.625V26.5H32.5V12.75ZM24.375 29C24.7627 28.9995 25.1407 28.8791 25.4573 28.6553C25.7738 28.4316 26.0134 28.1153 26.1431 27.75H22.5V29H24.375ZM18.75 31.5H21.25V25.25H18.75V31.5ZM17.5 26.5H10.625C10.1277 26.5 9.65081 26.3025 9.29918 25.9508C8.94754 25.5992 8.75 25.1223 8.75 24.625V22.125C8.75 21.6277 8.55246 21.1508 8.20082 20.7992C7.84919 20.4475 7.37228 20.25 6.875 20.25C6.37772 20.25 5.90081 20.4475 5.54918 20.7992C5.19754 21.1508 5 21.6277 5 22.125V25.875C5.00132 27.0349 5.46268 28.1469 6.28287 28.9671C7.10305 29.7873 8.21508 30.2487 9.375 30.25H17.5V26.5ZM9.375 31.5C7.88367 31.4983 6.45388 30.9052 5.39935 29.8506C4.34482 28.7961 3.75165 27.3663 3.75 25.875V22.125C3.75 21.2962 4.07924 20.5013 4.66529 19.9153C5.25134 19.3292 6.0462 19 6.875 19C7.7038 19 8.49866 19.3292 9.08471 19.9153C9.67076 20.5013 10 21.2962 10 22.125V24.625C10 24.7908 10.0658 24.9497 10.1831 25.0669C10.3003 25.1842 10.4592 25.25 10.625 25.25H12.5V20.875C12.499 20.0465 12.1694 19.2522 11.5836 18.6664C10.9978 18.0806 10.2035 17.751 9.375 17.75H4.375C3.5465 17.751 2.75222 18.0806 2.16639 18.6664C1.58055 19.2522 1.25099 20.0465 1.25 20.875V34H12.5V31.5H9.375ZM1.25 36.5H12.5V35.25H1.25V36.5Z" fill="#F25410"/>
</svg>
