<svg width="22" height="22" fill="none" xmlns="http://www.w3.org/2000/svg"><path d="M6.605 14.485h12.122a2.5 2.5 0 002.495-2.495V6.835c0-.009 0-.018-.004-.027 0-.01-.005-.023-.005-.032 0-.009-.004-.018-.004-.027-.005-.009-.005-.018-.01-.032-.004-.009-.004-.018-.008-.027-.005-.009-.005-.018-.01-.027l-.013-.031a68.709 68.709 0 01-.027-.05l-.014-.023c-.004-.009-.013-.018-.018-.027a.078.078 0 00-.018-.023c-.004-.009-.013-.013-.018-.022-.004-.01-.013-.014-.018-.023-.004-.009-.013-.013-.018-.018a4.379 4.379 0 01-.022-.022c-.01-.005-.014-.014-.023-.019-.01-.004-.018-.013-.027-.018-.01-.004-.014-.009-.023-.013a.14.14 0 01-.027-.018l-.027-.014-.027-.013-.027-.014c-.01-.004-.018-.004-.027-.009a.084.084 0 00-.032-.009c-.01 0-.018-.005-.023-.005-.013-.004-.022-.004-.036-.004-.005 0-.009-.005-.018-.005L5.334 4.163V2.02c0-.023 0-.046-.004-.064 0-.004 0-.009-.005-.018 0-.013-.005-.027-.005-.04-.004-.014-.004-.023-.009-.037 0-.009-.004-.013-.004-.022l-.014-.04c0-.005-.004-.014-.004-.019a.135.135 0 00-.018-.036c-.005-.005-.005-.014-.01-.018a.095.095 0 00-.017-.027c-.005-.01-.01-.014-.014-.023s-.009-.014-.014-.023c-.004-.009-.013-.018-.018-.027l-.013-.013-.027-.027-.014-.014a.197.197 0 00-.032-.027c-.004-.005-.013-.01-.018-.014-.009-.009-.018-.013-.027-.022a.417.417 0 00-.036-.023c-.004-.004-.009-.004-.013-.009l-.06-.027L1.627.048a.61.61 0 00-.8.326.61.61 0 00.326.8L4.11 2.422v13.375a2.5 2.5 0 002.175 2.473 2.46 2.46 0 00-.353 1.266A2.467 2.467 0 008.395 22a2.47 2.47 0 002.464-2.464c0-.452-.122-.882-.339-1.244h5.49a2.43 2.43 0 00-.34 1.244A2.467 2.467 0 0018.134 22a2.47 2.47 0 002.465-2.464 2.47 2.47 0 00-2.465-2.464H6.604a1.276 1.276 0 01-1.274-1.275v-1.655c.37.217.809.343 1.275.343zm3.038 5.046c0 .688-.56 1.244-1.243 1.244s-1.244-.561-1.244-1.244c0-.682.56-1.243 1.244-1.243.682 0 1.243.556 1.243 1.243zm9.74 0c0 .688-.561 1.244-1.244 1.244a1.25 1.25 0 01-1.244-1.244c0-.682.561-1.243 1.244-1.243.683 0 1.243.556 1.243 1.243zm-.656-6.266H6.605a1.276 1.276 0 01-1.275-1.276V5.394l14.672 2.02v4.572c0 .71-.575 1.28-1.275 1.28z" fill="#fff"/></svg>