<svg width="29" height="29" fill="none" xmlns="http://www.w3.org/2000/svg"><g clip-path="url(#clip0)" fill="#5F5F5F"><path d="M21.146 29c-4.331 0-7.855-3.523-7.855-7.854 0-4.33 3.524-7.854 7.855-7.854 4.33 0 7.854 3.523 7.854 7.854C29 25.476 25.476 29 21.146 29zm0-14.5a6.654 6.654 0 00-6.646 6.646 6.654 6.654 0 006.646 6.646 6.654 6.654 0 006.645-6.646 6.654 6.654 0 00-6.645-6.646z"/><path d="M19.938 24.167a.61.61 0 01-.428-.177l-2.417-2.416a.605.605 0 01.855-.855l1.96 1.96 3.803-4.347a.602.602 0 01.853-.057c.252.22.277.6.057.852l-4.229 4.833a.61.61 0 01-.435.207h-.02zm-8.458 0H3.02c-1 0-1.813-.814-1.813-1.813V9.062c0-.333.271-.604.605-.604h20.541c.334 0 .605.271.605.604v2.49a.604.604 0 01-1.209 0V9.667H2.417v12.687c0 .332.27.604.604.604h8.458a.604.604 0 010 1.209z"/><path d="M15.104 13.292H9.063a.604.604 0 010-1.209h6.041a.604.604 0 010 1.209zm8.459-3.625H.604A.604.604 0 010 9.063V4.229c0-.333.27-.604.604-.604h22.959c.333 0 .604.27.604.604v4.833a.605.605 0 01-.605.605zM1.207 8.458h21.75V4.833H1.208v3.625z"/><path d="M23.563 4.833a.607.607 0 01-.428-.176l-3.447-3.449H4.48L1.032 4.657a.605.605 0 01-.854-.854L3.803.178A.6.6 0 014.23 0h15.708c.16 0 .314.064.428.176l3.625 3.625a.605.605 0 01-.428 1.032z"/></g><defs><clipPath id="clip0"><path fill="#fff" d="M0 0h29v29H0z"/></clipPath></defs></svg>