<svg width="26" height="29" fill="none" xmlns="http://www.w3.org/2000/svg"><path d="M3.344 12.724v-1.138a2.08 2.08 0 01-.906-1.722v-3.52a.453.453 0 01-.454-.453v-.907a4.078 4.078 0 118.157 0v.454h2.265a.453.453 0 110 .906H9.687v2.265a3.177 3.177 0 01-2.718 3.14v.938h.453a3.175 3.175 0 013.172 3.172v3.172h.906V9.516a.453.453 0 01.453-.454h12.688a.453.453 0 01.453.454V20.39a.453.453 0 01-.453.453h-4.124a2.27 2.27 0 01-2.22 1.812h-1.36v1.36a.453.453 0 01-.453.453h-2.718a.453.453 0 01-.454-.453v-.453h-2.718v4.078a.453.453 0 01-.453.453H1.078a.453.453 0 01-.453-.453V15.859a3.175 3.175 0 012.719-3.135zm5.89-7.74a3.172 3.172 0 10-6.343 0v.454h6.343v-.454zM5.61 10.875h.907A2.268 2.268 0 008.78 8.609V6.344H3.344v3.518a1.178 1.178 0 00.655 1.06.453.453 0 01.251.406v1.36h1.813v-.907h-.454a.453.453 0 110-.906zm11.782-.906V13.2l.654-.436a.453.453 0 01.503 0l.655.436V9.969h-1.812zm6.797 0H20.11v4.078a.454.454 0 01-.704.377l-1.108-.74-1.108.739a.453.453 0 01-.705-.376V9.969h-4.078v9.062h.906v-.453a.453.453 0 01.454-.453h2.718a.453.453 0 01.453.453v1.36h7.25v-9.97zM18.297 21.75a1.361 1.361 0 001.282-.906h-2.642v.906h1.36zm-4.078 1.813h1.812V19.03H14.22v4.532zm-.906-3.625H8.328a1.36 1.36 0 01-1.36-1.36v-1.812a1.36 1.36 0 10-2.718 0v2.718a3.176 3.176 0 003.172 3.172h5.89v-2.718zm-5.891 3.625a4.082 4.082 0 01-4.078-4.079v-2.718a2.266 2.266 0 114.531 0v1.812a.453.453 0 00.453.453h1.36V15.86a2.269 2.269 0 00-2.266-2.265H3.797a2.268 2.268 0 00-2.266 2.265v9.516h8.156v-1.813H7.422zm-5.89 3.625h8.155v-.907H1.531v.907z" fill="#F25410"/></svg>