<svg width="17" height="17" fill="none" xmlns="http://www.w3.org/2000/svg"><path d="M8.212 16.026H3.778a2.186 2.186 0 01-2.183-2.183V3.157c0-1.205.982-2.183 2.183-2.183h4.506c.27 0 .487-.216.487-.487A.485.485 0 008.284 0H3.778A3.16 3.16 0 00.62 3.157v10.686A3.16 3.16 0 003.778 17h4.434a.487.487 0 000-.974z" fill="#F25410"/><path d="M16.235 8.157L13.14 5.062a.486.486 0 00-.69 0 .486.486 0 000 .689l2.267 2.266H4.835a.485.485 0 00-.487.487c0 .27.216.487.487.487h9.881l-2.265 2.265a.49.49 0 00.343.833.475.475 0 00.342-.144l3.096-3.095a.487.487 0 00.003-.693z" fill="#F25410"/></svg>