<svg width="20" height="20" fill="none" xmlns="http://www.w3.org/2000/svg"><g clip-path="url(#clip0)" fill="#5F5F5F"><path d="M19.9 9.673c-.044-.066-1.112-1.645-2.846-3.242-1.027-.946-2.076-1.701-3.118-2.246C12.606 3.49 11.28 3.138 10 3.138c-1.281 0-2.605.352-3.936 1.047-1.042.545-2.09 1.3-3.118 2.246A20.257 20.257 0 00.1 9.673a.586.586 0 000 .654c.044.066 1.112 1.644 2.846 3.242 1.027.946 2.076 1.701 3.118 2.246 1.33.695 2.655 1.047 3.936 1.047 1.281 0 2.605-.352 3.936-1.047 1.042-.545 2.09-1.3 3.118-2.246 1.734-1.598 2.802-3.176 2.846-3.242a.586.586 0 000-.654zm-3.659 3.05c-1.473 1.354-3.752 2.967-6.24 2.967-2.49 0-4.769-1.613-6.242-2.966A20.06 20.06 0 011.307 10a20.062 20.062 0 012.452-2.724C5.232 5.923 7.51 4.31 10 4.31c2.49 0 4.768 1.613 6.241 2.966A20.067 20.067 0 0118.693 10a20.065 20.065 0 01-2.452 2.724z"/><path d="M10 6.904A3.1 3.1 0 006.905 10a3.1 3.1 0 003.097 3.096A3.1 3.1 0 0013.097 10a3.1 3.1 0 00-3.096-3.096zm0 5.02A1.927 1.927 0 018.077 10c0-1.061.863-1.925 1.925-1.925 1.06 0 1.924.864 1.924 1.925a1.927 1.927 0 01-1.924 1.924z"/></g><defs><clipPath id="clip0"><path fill="#fff" d="M0 0h20v20H0z"/></clipPath></defs></svg>