<svg width="23" height="23" fill="none" xmlns="http://www.w3.org/2000/svg"><g clip-path="url(#clip0)"><path d="M13.053 22.955h-3.69c-.617 0-1.118-.5-1.118-1.116v-8.307H6.09a1.118 1.118 0 01-1.117-1.116v-3.56c0-.615.501-1.116 1.117-1.116h2.154V5.958c0-1.768.556-3.272 1.608-4.349 1.056-1.082 2.533-1.654 4.27-1.654l2.815.005a1.118 1.118 0 011.116 1.115v3.306c0 .615-.502 1.115-1.118 1.115l-1.895.001c-.578 0-.725.116-.757.151-.051.059-.113.225-.113.684V7.74h2.623a1.12 1.12 0 011.128 1.116l-.002 3.56c0 .615-.501 1.115-1.117 1.115H14.17v8.308c0 .616-.502 1.116-1.118 1.116zm-3.457-1.348h3.224v-8.679c0-.41.335-.745.746-.745h3.004V9.09h-3.004a.746.746 0 01-.746-.745V6.332c0-.527.053-1.126.452-1.576.481-.545 1.24-.607 1.769-.607l1.662-.001v-2.84l-2.581-.005c-2.792 0-4.526 1.784-4.526 4.655v2.386c0 .41-.335.745-.747.745H6.325v3.094h2.524c.412 0 .747.334.747.745v8.679zm7.339-20.299z" fill="#F25410"/></g><defs><clipPath id="clip0"><path fill="#fff" d="M0 0h23v23H0z"/></clipPath></defs></svg>