<svg width="16" height="20" fill="none" xmlns="http://www.w3.org/2000/svg"><path d="M8 0C3.926 0 .612 3.314.612 7.388c0 1.341.601 2.784.626 2.845.195.46.578 1.177.854 1.597l5.066 7.675c.207.315.514.495.842.495.328 0 .634-.18.842-.495l5.066-7.675c.277-.42.66-1.136.854-1.598.025-.06.626-1.502.626-2.844C15.388 3.314 12.074 0 8 0zm5.96 9.895c-.173.414-.53 1.08-.778 1.456l-5.066 7.676c-.1.152-.132.152-.232 0L2.818 11.35a10.927 10.927 0 01-.778-1.456c-.007-.018-.559-1.346-.559-2.507A6.526 6.526 0 018 .87a6.526 6.526 0 016.519 6.52c0 1.162-.553 2.493-.559 2.506z" fill="#F25410"/><path d="M8 3.477A3.916 3.916 0 004.088 7.39 3.916 3.916 0 008 11.299a3.916 3.916 0 003.911-3.91A3.916 3.916 0 008 3.477zm0 6.954a3.046 3.046 0 01-3.042-3.042A3.046 3.046 0 018 4.346a3.046 3.046 0 013.042 3.043A3.046 3.046 0 018 10.43z" fill="#F25410"/></svg>