<svg width="30" height="28" fill="none" xmlns="http://www.w3.org/2000/svg"><path d="M15 27.4c-.427 0-.839-.156-1.16-.439a349.091 349.091 0 00-3.411-2.949l-.005-.004C7.4 21.418 4.79 19.183 2.975 16.98.945 14.519 0 12.184 0 9.634c0-2.477.845-4.763 2.38-6.436C3.933 1.505 6.064.572 8.38.572c1.732 0 3.318.55 4.714 1.636a9.672 9.672 0 011.906 2 9.67 9.67 0 011.906-2C18.302 1.122 19.888.572 21.619.572c2.317 0 4.448.933 6.001 2.626C29.155 4.87 30 7.157 30 9.634c0 2.55-.945 4.885-2.975 7.347-1.816 2.202-4.426 4.438-7.448 7.026a344.512 344.512 0 00-3.418 2.955c-.32.282-.732.437-1.159.437zM8.38 2.337c-1.82 0-3.492.73-4.708 2.057C2.437 5.74 1.757 7.6 1.757 9.635c0 2.144.793 4.062 2.571 6.219 1.719 2.084 4.275 4.274 7.235 6.81l.006.004c1.035.886 2.208 1.891 3.428 2.964a409.41 409.41 0 013.44-2.969c2.96-2.535 5.516-4.725 7.235-6.81 1.778-2.156 2.57-4.074 2.57-6.219 0-2.033-.68-3.893-1.914-5.24a6.317 6.317 0 00-4.709-2.056c-1.333 0-2.557.427-3.638 1.267-.964.749-1.635 1.696-2.028 2.358a1.1 1.1 0 01-.953.544 1.1 1.1 0 01-.953-.544c-.393-.662-1.064-1.61-2.028-2.358-1.08-.84-2.305-1.267-3.638-1.267z" fill="#fff"/></svg>