<svg width="19" height="19" fill="none" xmlns="http://www.w3.org/2000/svg"><g clip-path="url(#clip0)"><path d="M18.525 8.227l-.001-.001-7.75-7.75a1.738 1.738 0 00-1.238-.513 1.74 1.74 0 00-1.237.512L.553 8.222l-.008.008a1.751 1.751 0 00.003 2.47 1.74 1.74 0 001.215.512h.309v5.704a2.05 2.05 0 002.047 2.047h3.032c.308 0 .557-.25.557-.557v-4.471c0-.515.419-.934.934-.934h1.789c.515 0 .934.419.934.934v4.471c0 .308.249.557.556.557h3.032a2.05 2.05 0 002.048-2.047v-5.704h.286a1.74 1.74 0 001.237-.512 1.752 1.752 0 00.001-2.473zm-.788 1.686a.632.632 0 01-.45.186h-.843a.557.557 0 00-.557.557v6.26a.935.935 0 01-.934.934h-2.475v-3.915a2.05 2.05 0 00-2.047-2.048H8.642a2.05 2.05 0 00-2.047 2.048v3.915H4.119a.935.935 0 01-.934-.934v-6.26a.557.557 0 00-.557-.557H1.8a.631.631 0 01-.464-.187.637.637 0 010-.899l7.75-7.75a.631.631 0 01.899 0l7.75 7.748.003.003a.637.637 0 01-.001.899z" fill="#3F4655"/></g><defs><clipPath id="clip0"><path fill="#fff" d="M0 0h19v19H0z"/></clipPath></defs></svg>