<svg width="20" height="21" fill="none" xmlns="http://www.w3.org/2000/svg"><path d="M14.19 0H5.81C2.606 0 0 2.737 0 6.1v8.8C0 18.264 2.606 21 5.81 21h8.38c3.204 0 5.81-2.736 5.81-6.1V6.1C20 2.737 17.394 0 14.19 0zm4.248 14.9c0 2.459-1.906 4.46-4.248 4.46H5.81c-2.342 0-4.247-2.001-4.247-4.46V6.1c0-2.459 1.905-4.46 4.247-4.46h8.38c2.342 0 4.248 2.001 4.248 4.46v8.8z" fill="#F25410"/><path d="M10 4.84c-2.972 0-5.39 2.539-5.39 5.66s2.418 5.66 5.39 5.66c2.972 0 5.39-2.539 5.39-5.66S12.973 4.84 10 4.84zm0 9.68c-2.11 0-3.828-1.804-3.828-4.02 0-2.216 1.717-4.02 3.828-4.02 2.11 0 3.828 1.804 3.828 4.02 0 2.216-1.717 4.02-3.828 4.02zm5.469-8.942c.431 0 .781-.367.781-.82 0-.453-.35-.82-.781-.82-.432 0-.781.367-.781.82 0 .453.35.82.78.82z" fill="#F25410"/></svg>