<svg width="27" height="33" fill="none" xmlns="http://www.w3.org/2000/svg"><path d="M25.19.853a1.522 1.522 0 00-1.654.252L21.39 3.004 18.473.394a1.544 1.544 0 00-2.06 0L13.498 3 10.582.394a1.544 1.544 0 00-2.06 0l-2.92 2.61-2.146-1.899A1.535 1.535 0 00.902 2.262v28.476a1.537 1.537 0 002.558 1.157l2.145-1.899 2.918 2.61a1.543 1.543 0 002.06 0l2.915-2.608 2.916 2.608a1.544 1.544 0 002.06 0l2.919-2.61 2.146 1.899a1.534 1.534 0 002.554-1.158V2.262a1.521 1.521 0 00-.902-1.409zm-2.777 27.985a1.543 1.543 0 00-2.052.006l-2.918 2.61-2.915-2.608a1.544 1.544 0 00-2.06 0l-2.916 2.608-2.92-2.61a1.535 1.535 0 00-2.045-.006l-2.14 1.899v-4.12L2.44 2.264 4.582 4.16c.587.52 1.47.517 2.053-.005l2.917-2.61 2.916 2.607a1.544 1.544 0 002.06 0l2.916-2.607 2.919 2.61a1.535 1.535 0 002.046.005l2.139-1.899v19.575l.008 8.9-2.143-1.899z" fill="#F25410"/><path d="M20.825 15.727H6.175a.773.773 0 000 1.546h14.65a.773.773 0 000-1.546zM13.87 11.09H6.175a.773.773 0 000 1.546h7.695a.773.773 0 000-1.545zm6.955 9.273H6.175a.773.773 0 100 1.546h14.65a.773.773 0 100-1.546z" fill="#F25410"/></svg>