<svg width="19" height="19" fill="none" xmlns="http://www.w3.org/2000/svg"><path d="M14.844 0H4.156A4.156 4.156 0 000 4.156v10.688A4.156 4.156 0 004.156 19h10.688A4.156 4.156 0 0019 14.844V4.156A4.156 4.156 0 0014.844 0zm2.969 14.844a2.97 2.97 0 01-2.97 2.969H4.157a2.969 2.969 0 01-2.968-2.97V4.157a2.968 2.968 0 012.968-2.968h10.688a2.968 2.968 0 012.969 2.968v10.688z" fill="#F25410"/><path d="M5.938 4.156H4.75a.594.594 0 00-.594.594v1.188c0 .327.266.593.594.593h1.188a.594.594 0 00.593-.593V4.75a.594.594 0 00-.593-.594zm0 4.157H4.75a.594.594 0 00-.594.593v1.188c0 .328.266.594.594.594h1.188a.594.594 0 00.593-.594V8.906a.594.594 0 00-.593-.594zm0 4.156H4.75a.594.594 0 00-.594.594v1.187c0 .328.266.594.594.594h1.188a.594.594 0 00.593-.594v-1.188a.594.594 0 00-.593-.593zm8.906-7.719H7.719v1.188h7.125V4.75zm0 4.156H7.719v1.188h7.125V8.906zm0 4.157H7.719v1.187h7.125v-1.188z" fill="#F25410"/></svg>