<svg width="19" height="17" fill="none" xmlns="http://www.w3.org/2000/svg"><path d="M15.104.707H3.896A3.9 3.9 0 000 4.604v6.018a3.834 3.834 0 002.757 3.685l1.882 1.882a.557.557 0 00.787 0l1.726-1.726h7.952A3.9 3.9 0 0019 10.566V4.604A3.9 3.9 0 0015.104.707zm2.783 9.86a2.786 2.786 0 01-2.784 2.782h-8.18a.557.557 0 00-.394.163l-1.496 1.496-1.593-1.593a.556.556 0 00-.26-.146 2.722 2.722 0 01-2.066-2.647V4.604A2.786 2.786 0 013.896 1.82h11.207a2.786 2.786 0 012.784 2.784v5.962z" fill="#5F5F5F"/><path d="M13.035 6.044h-7.07a.557.557 0 000 1.114h7.07a.557.557 0 100-1.114zm0 1.968h-7.07a.557.557 0 100 1.113h7.07a.557.557 0 000-1.113z" fill="#5F5F5F"/></svg>