<svg width="38" height="38" fill="none" xmlns="http://www.w3.org/2000/svg"><path d="M34.14 29.315a.851.851 0 00-.009-.022c-.683-1.598-2.285-2.19-4.181-1.542l-5.17 1.43c-.3-.905-1.045-1.675-2.1-2.067a.657.657 0 00-.02-.007l-5.683-1.929c-.473-.611-1.955-2.176-4.73-2.176-1.938 0-3.654 1.33-4.635 2.78H.742a.742.742 0 00-.742.742v9.358c0 .41.332.742.742.742h4.413c.41 0 .742-.333.742-.742v-.641h2.07c.41 0 .742-.333.742-.742v-.214c1.206.105 1.603.334 2.71.973.853.491 2.14 1.234 4.46 2.276l.032.014c.445.175 1.316.45 2.388.45.747 0 1.592-.133 2.46-.526l11.428-4.092a.762.762 0 00.06-.025c1.092-.502 2.72-1.919 1.893-4.04zM4.413 35.14H1.484v-7.873h2.929v7.873zm2.811-1.383H5.897v-6.49h1.327v6.49zm24.43-1.762l-11.424 4.09a.857.857 0 00-.063.026c-1.591.731-3.104.293-3.696.063-2.24-1.008-3.436-1.698-4.31-2.201-1.214-.7-1.8-1.038-3.452-1.175V26.82c.703-1.153 2.068-2.334 3.539-2.334 2.522 0 3.59 1.64 3.633 1.707a.74.74 0 00.393.314l5.899 2.002c.942.354 1.44 1.16 1.211 1.965-.105.372-.35.68-.687.868a1.438 1.438 0 01-1.09.13l-6.65-2.107a.742.742 0 10-.448 1.415l6.662 2.11a2.944 2.944 0 00.827.12c.492 0 .98-.125 1.422-.372a2.91 2.91 0 001.437-1.938l5.573-1.544c.805-.275 1.861-.374 2.331.71.487 1.271-.778 1.97-1.107 2.128z" fill="#F25410"/><path d="M36.378 2.515h-4.412a.742.742 0 00-.743.743v.64h-2.069a.742.742 0 00-.742.743v.213c-1.207-.105-1.603-.334-2.711-.973-.852-.491-2.14-1.234-4.46-2.276a.635.635 0 00-.032-.014c-.755-.297-2.733-.882-4.846.076l-2.987 1.07L10.86.218a.742.742 0 00-1.05 0L1.544 8.484a.736.736 0 000 1.05l14.123 14.122c.226.227.755.295 1.05 0l7.545-7.545c.197.017.4.026.611.026 1.94 0 3.654-1.33 4.636-2.78h6.87c.41 0 .742-.332.742-.742V3.258a.742.742 0 00-.743-.743zm-26.044-.721l1.691 1.691a3.203 3.203 0 01-1.691.477 3.203 3.203 0 01-1.692-.477l1.692-1.691zM4.81 10.7L3.12 9.01l1.69-1.693c.311.503.478 1.084.478 1.692 0 .607-.167 1.188-.478 1.691zm11.382 11.382l-1.691-1.691a3.232 3.232 0 013.382 0l-1.69 1.69zm2.76-2.76a4.717 4.717 0 00-5.52 0L5.88 11.77c.58-.798.892-1.755.892-2.761a4.672 4.672 0 00-.892-2.761l1.693-1.694a4.67 4.67 0 002.761.893 4.672 4.672 0 002.76-.893L14.7 6.16a2.93 2.93 0 00-.999.34 2.91 2.91 0 00-1.21 1.278 4.23 4.23 0 00-2.22 7.151 4.217 4.217 0 002.992 1.237 4.218 4.218 0 002.992-1.237 4.214 4.214 0 001.1-1.915l2.506.851a4.738 4.738 0 00.787 3.761l-1.695 1.695zm-4.512-7.297l.02.007 1.484.504a2.75 2.75 0 01-4.623 1.344 2.75 2.75 0 01.895-4.481c.137 1.14.958 2.156 2.224 2.626zm7.277 4.532c-.287-.467-.448-1-.474-1.543.355.257.79.508 1.309.708l-.835.835zm6.695-4.238c-.704 1.153-2.068 2.334-3.539 2.334a5.38 5.38 0 01-.774-.055h-.003c-1.603-.233-2.465-1.144-2.75-1.505-.014-.022-.079-.107-.088-.12a.74.74 0 00-.41-.34l-5.9-2.003c-.942-.354-1.44-1.16-1.212-1.965v-.001l.001-.002c.106-.37.35-.677.687-.865a1.436 1.436 0 011.09-.13l6.649 2.107a.742.742 0 10.448-1.415l-5.288-1.676-.047-.046v-.002l-2.739-2.738 2.353-.842a.791.791 0 00.026-.01l.008-.003a.718.718 0 00.03-.013c1.59-.731 3.103-.294 3.696-.063 2.24 1.008 3.436 1.697 4.31 2.201 1.214.7 1.799 1.038 3.452 1.174v5.978zm2.811-.446h-1.327v-6.49h1.327v6.49zm4.413 0h-2.928V4h2.928v7.873z" fill="#F25410"/></svg>