<svg width="28" height="32" fill="none" xmlns="http://www.w3.org/2000/svg"><path d="M12.22 2.462H7.581a.686.686 0 00-.684.684c0 .376.308.684.684.684h4.637a.686.686 0 00.684-.684c0-.376-.3-.684-.684-.684zM9.902 26.009a2.11 2.11 0 00-2.113 2.113 2.125 2.125 0 002.12 2.113 2.109 2.109 0 002.107-2.113 2.11 2.11 0 00-2.114-2.113zm0 2.866a.747.747 0 01-.745-.746.753.753 0 01.752-.745c.41 0 .739.335.739.745s-.335.745-.746.745z" fill="#F25410"/><path d="M24.523 9.233h-5.39V2.81A2.805 2.805 0 0016.33 0H3.486A2.817 2.817 0 00.668 2.81v26.38A2.812 2.812 0 003.486 32h12.83a2.805 2.805 0 002.81-2.804v-6.422h5.39c1.56 0 2.818-1.293 2.818-2.852v-7.837c.006-1.56-1.259-2.852-2.811-2.852zM2.036 2.81c0-.8.65-1.45 1.45-1.443h12.836c.794 0 1.444.643 1.444 1.436V5.34H2.036V2.81zm15.73 26.385c0 .793-.636 1.443-1.437 1.443H3.486c-.8 0-1.45-.643-1.45-1.443v-3.617h15.73v3.617zm0-4.986H2.036V6.702h15.73v2.53h-7.503c-1.56 0-2.824 1.293-2.824 2.853v7.844c0 1.56 1.265 2.852 2.824 2.852h7.503v1.43zm8.213-4.329h-.006c0 .8-.65 1.457-1.457 1.457H10.263c-.8 0-1.457-.65-1.457-1.457v-7.824c0-.8.65-1.456 1.457-1.456h14.26c.8 0 1.456.65 1.456 1.456v7.824z" fill="#F25410"/><path d="M20.06 18.534h-9.978a.686.686 0 00-.684.684c0 .376.308.684.684.684h9.979a.686.686 0 00.683-.684.686.686 0 00-.683-.684zm-5.003-5.807a2.106 2.106 0 00-2.21 0 2.111 2.111 0 00-2.906.698 2.111 2.111 0 00.697 2.907c.329.205.705.314 1.102.314.39 0 .772-.11 1.107-.314.999.608 2.299.3 2.907-.698a2.111 2.111 0 00-.697-2.907zm-1.101 2.551a.747.747 0 01-.575-.273.691.691 0 00-1.067 0 .758.758 0 01-.574.273.747.747 0 01-.746-.745.739.739 0 01.746-.745c.225 0 .437.102.574.273a.7.7 0 00.534.253.7.7 0 00.533-.253.737.737 0 01.575-.273c.41 0 .745.335.745.745s-.335.745-.745.745z" fill="#F25410"/></svg>