<svg width="15" height="15" fill="none" xmlns="http://www.w3.org/2000/svg"><path d="M13.43 11.153a.586.586 0 00-.82.12c-.106.143-.22.283-.338.416a.586.586 0 00.878.777 7.55 7.55 0 00.4-.493.586.586 0 00-.12-.82zm.98-2.748a.586.586 0 00-.697.448 6.345 6.345 0 01-.136.518.586.586 0 101.12.346 7.46 7.46 0 00.161-.615.586.586 0 00-.448-.697zm-3.801 4.625a6.34 6.34 0 01-.479.24.586.586 0 00.482 1.069c.193-.087.384-.184.568-.287a.586.586 0 00-.571-1.023zM6.914 2.813v4.444L4.765 9.406a.586.586 0 10.83.829l2.32-2.32a.586.586 0 00.17-.415V2.812a.586.586 0 10-1.171 0z" fill="#FFA800"/><path d="M14.414 1.26a.586.586 0 00-.586.586v1.627A7.518 7.518 0 007.5 0C5.497 0 3.613.78 2.197 2.197A7.451 7.451 0 000 7.5c0 2.003.78 3.887 2.197 5.303A7.45 7.45 0 007.5 15h.029c.211 0 .425-.009.634-.026a.586.586 0 00-.098-1.168 6.463 6.463 0 01-.536.022H7.5A6.335 6.335 0 011.172 7.5 6.335 6.335 0 017.5 1.172a6.343 6.343 0 015.447 3.105h-1.61a.586.586 0 000 1.172h1.788a1.864 1.864 0 001.027-.308c.51-.335.848-.912.848-1.567V1.846a.586.586 0 00-.586-.586z" fill="#FFA800"/></svg>