<svg width="23" height="16" fill="none" xmlns="http://www.w3.org/2000/svg"><path d="M11.639 15.5c3.327 0 2.14-2.198 2.398-2.83-.004-.472-.008-.926.007-1.202.211.062.708.325 1.736 1.367 1.586 1.67 1.991 2.665 3.272 2.665h2.359c.747 0 1.136-.323 1.331-.594.188-.262.372-.722.17-1.438-.526-1.724-3.594-4.701-3.785-5.015.029-.058.075-.135.099-.175h-.002c.606-.835 2.917-4.449 3.257-5.895a.019.019 0 00.002-.008c.184-.66.015-1.088-.159-1.33C22.062.683 21.644.5 21.08.5h-2.358c-.79 0-1.389.415-1.692 1.172-.507 1.345-1.93 4.111-2.998 5.09a66.946 66.946 0 01.006-3.233C14.072 1.994 14.184.5 12.657.5H8.95c-.957 0-1.872 1.09-.88 2.384.865 1.134.31 1.766.497 4.912-.728-.815-2.024-3.016-2.94-5.829C5.37 1.206 4.981.501 3.886.501H1.528C.57.501 0 1.045 0 1.956 0 4.002 4.34 15.5 11.639 15.5zM3.886 2.001c.208 0 .229 0 .383.457.939 2.883 3.043 7.149 4.58 7.149 1.155 0 1.155-1.235 1.155-1.7l-.001-3.702C9.94 2.98 9.513 2.37 9.232 2l3.361.004c.002.017-.019 4.095.01 5.083 0 1.403 1.068 2.207 2.734.447 1.759-2.071 2.975-5.167 3.023-5.293.072-.18.135-.241.36-.241h2.37l-.002.009c-.216 1.05-2.344 4.396-3.056 5.435-.012.016-.022.033-.033.05-.313.534-.568 1.124.043 1.954h.001c.056.07.2.234.411.462.656.706 2.904 3.12 3.104 4.08-.133.022-.276.006-2.505.011-.474 0-.845-.74-2.26-2.23-1.273-1.292-2.099-1.82-2.851-1.82-1.46 0-1.354 1.237-1.341 2.733.005 1.622-.005 1.109.006 1.211-.085.035-.33.105-.967.105C5.559 14 1.599 3.929 1.446 2.004c.053-.005.778-.002 2.44-.003z" fill="#F25410"/></svg>