<svg width="34" height="38" fill="none" xmlns="http://www.w3.org/2000/svg"><path d="M3.75 16.55v-1.57a2.868 2.868 0 01-1.25-2.374V7.75a.625.625 0 01-.625-.625v-1.25a5.625 5.625 0 0111.25 0V6.5h3.125a.625.625 0 110 1.25H12.5v3.125a4.382 4.382 0 01-3.75 4.33V16.5h.625a4.38 4.38 0 014.375 4.375v4.375H15V12.125a.624.624 0 01.625-.625h17.5a.624.624 0 01.625.625v15a.624.624 0 01-.625.625h-5.688a3.13 3.13 0 01-3.062 2.5H22.5v1.875a.624.624 0 01-.625.625h-3.75a.624.624 0 01-.625-.625V31.5h-3.75v5.625a.624.624 0 01-.625.625H.625A.625.625 0 010 37.125v-16.25a4.379 4.379 0 013.75-4.325zm8.125-10.675a4.375 4.375 0 10-8.75 0V6.5h8.75v-.625zm-5 8.125h1.25a3.129 3.129 0 003.125-3.125V7.75h-7.5v4.852a1.625 1.625 0 00.904 1.464.625.625 0 01.346.559V16.5h2.5v-1.25h-.625a.625.625 0 110-1.25zm16.25-1.25v4.457l.903-.602a.625.625 0 01.694 0l.903.602V12.75h-2.5zm9.375 0h-5.625v5.625a.626.626 0 01-.972.52l-1.528-1.02-1.528 1.019a.625.625 0 01-.972-.519V12.75H16.25v12.5h1.25v-.625a.624.624 0 01.625-.625h3.75a.624.624 0 01.625.625V26.5h10V12.75zM24.375 29a1.88 1.88 0 001.768-1.25H22.5V29h1.875zm-5.625 2.5h2.5v-6.25h-2.5v6.25zm-1.25-5h-6.875a1.875 1.875 0 01-1.875-1.875v-2.5a1.875 1.875 0 10-3.75 0v3.75a4.38 4.38 0 004.375 4.375H17.5V26.5zm-8.125 5a5.631 5.631 0 01-5.625-5.625v-3.75a3.125 3.125 0 116.25 0v2.5a.624.624 0 00.625.625H12.5v-4.375a3.129 3.129 0 00-3.125-3.125h-5a3.129 3.129 0 00-3.125 3.125V34H12.5v-2.5H9.375zm-8.125 5H12.5v-1.25H1.25v1.25z" fill="#F25410"/></svg>