<svg width="18" height="28" viewBox="0 0 18 28" fill="none" xmlns="http://www.w3.org/2000/svg">
<path d="M16.477 0H1.52291C1.21491 0 0.965149 0.249758 0.965149 0.557758V27.4422C0.965149 27.7502 1.21491 28 1.52291 28H16.477C16.785 28 17.0348 27.7502 17.0347 27.4422V0.557758C17.0347 0.249758 16.785 0 16.477 0ZM15.9192 26.8845H2.08066V1.11552H15.9192V26.8845H15.9192Z" fill="#F25410"/>
<path d="M7.71707 2.56572H4.03578C3.72779 2.56572 3.47803 2.81548 3.47803 3.12348V13.8912C3.47803 14.1992 3.72779 14.449 4.03578 14.449H7.71707C8.02507 14.449 8.27483 14.1992 8.27483 13.8912V3.12353C8.27488 2.81553 8.02507 2.56572 7.71707 2.56572ZM7.15931 13.3335H4.5936V3.68129H7.15931V13.3335Z" fill="#F25410"/>
<path d="M13.9643 2.56572H10.283C9.97499 2.56572 9.72523 2.81548 9.72523 3.12348V13.8912C9.72523 14.1992 9.97499 14.449 10.283 14.449H13.9643C14.2723 14.449 14.522 14.1992 14.522 13.8912V3.12353C14.5221 2.81553 14.2723 2.56572 13.9643 2.56572ZM13.4065 13.3335H10.8408V3.68129H13.4065V13.3335Z" fill="#F25410"/>
<path d="M4.51003 15.5088C3.72576 15.5088 3.08772 16.1468 3.08772 16.9311C3.08772 17.7154 3.72576 18.3534 4.51003 18.3534C5.29431 18.3534 5.93235 17.7154 5.93235 16.9311C5.93235 16.1468 5.29431 15.5088 4.51003 15.5088ZM4.51003 17.2378C4.34094 17.2378 4.20324 17.1002 4.20324 16.931C4.20324 16.7619 4.34089 16.6242 4.51003 16.6242C4.67918 16.6242 4.81683 16.7619 4.81683 16.931C4.81683 17.1002 4.67913 17.2378 4.51003 17.2378Z" fill="#F25410"/>
</svg>
