<svg width="43" height="43" viewBox="0 0 43 43" fill="none" xmlns="http://www.w3.org/2000/svg">
<path d="M37.5053 0H5.49468C2.46486 0 0 2.46494 0 5.49476V37.5053C0 40.5351 2.46486 43 5.49468 43H37.5053C40.5351 43 43 40.5351 43 37.5052V5.49476C43 2.46494 40.5351 0 37.5053 0ZM40.4672 37.5053C40.4672 39.1386 39.1385 40.4672 37.5053 40.4672H5.49468C3.86143 40.4672 2.53272 39.1385 2.53272 37.5053V32.8856L10.8686 25.793C11.1728 25.5342 11.6166 25.5318 11.9236 25.7867L17.1452 30.1227C17.6487 30.5407 18.3878 30.5064 18.8505 30.0432L31.2574 17.6174C31.4816 17.3927 31.7431 17.3709 31.8795 17.3779C32.0156 17.3848 32.2738 17.4334 32.474 17.6799L40.4673 27.522V37.5053H40.4672ZM40.4672 23.5043L34.44 16.0829C33.8423 15.3469 32.9563 14.8969 32.0093 14.8483C31.063 14.8004 30.135 15.1567 29.4651 15.8277L17.8746 27.4361L13.5418 23.8383C12.2855 22.795 10.4711 22.8059 9.22728 23.8642L2.53272 29.5601V5.49476C2.53272 3.86152 3.86143 2.5328 5.49468 2.5328H37.5053C39.1386 2.5328 40.4672 3.86152 40.4672 5.49476V23.5043Z" fill="#A4A4A4"/>
</svg>
