<svg width="25" height="25" viewBox="0 0 25 25" fill="none" xmlns="http://www.w3.org/2000/svg">
<path d="M1.14427 16.4223L1.14293 16.4464C1.05223 18.0799 1.94215 19.6102 3.41073 20.3438L3.42579 20.3514C3.94354 20.606 4.36791 21.0258 4.63566 21.5478L4.64168 21.5592C5.38166 23.0079 6.91215 23.886 8.54372 23.7979L8.56849 23.7966C9.1602 23.7625 9.74756 23.9194 10.2482 24.2456C11.6298 25.1341 13.3835 25.1341 14.7651 24.2456C15.2658 23.9194 15.8531 23.7625 16.4449 23.7966L16.4696 23.7979C18.0985 23.8867 19.631 23.0079 20.3727 21.5568L20.3763 21.5489C20.6451 21.0255 21.0705 20.605 21.5899 20.35L21.6019 20.3438C23.0705 19.6098 23.9608 18.0799 23.8697 16.4461L23.8684 16.4234C23.8383 15.848 23.9936 15.2785 24.3108 14.8033C25.2242 13.4338 25.2242 11.6279 24.3112 10.258C23.9942 9.78312 23.8383 9.21396 23.8684 8.63861L23.8697 8.61453C23.9608 6.9807 23.0705 5.4508 21.6006 4.71647L21.5872 4.70959C21.0705 4.45564 20.6471 4.03789 20.379 3.51726L20.3713 3.50177C19.631 2.05308 18.0985 1.17526 16.4696 1.26301L16.4445 1.26438C15.8531 1.29845 15.2658 1.14154 14.7654 0.815321H14.7648C13.3832 -0.0731654 11.6295 -0.0731654 10.2479 0.815321C9.74723 1.14119 9.15987 1.2981 8.56815 1.26404L8.54338 1.26266C6.91416 1.17388 5.38199 2.05273 4.64202 3.50108L4.63633 3.51175C4.36825 4.0348 3.94354 4.45495 3.42512 4.70993L3.41106 4.71682C1.94248 5.45045 1.05223 6.9807 1.14327 8.61453L1.14461 8.63724C1.17473 9.21259 1.01943 9.78209 0.702158 10.257C-0.211185 11.6268 -0.211185 13.4331 0.702158 14.8026C1.0191 15.2775 1.17473 15.847 1.14427 16.4223ZM1.83037 11.0573C2.32 10.3244 2.55997 9.44555 2.51311 8.55775L2.51177 8.53366C2.46358 7.4511 3.05463 6.44562 4.0088 5.98554L4.02051 5.97969C4.80333 5.59429 5.44424 4.95976 5.84854 4.17037L5.85523 4.1573C6.34688 3.19448 7.37669 2.61088 8.47042 2.67075L8.49452 2.67178C9.36971 2.72237 10.2382 2.49044 10.9785 2.008C11.9133 1.40684 13.0994 1.40684 14.0342 2.008C14.7745 2.48975 15.643 2.72202 16.5178 2.67213L16.5419 2.67075C17.641 2.61156 18.6658 3.19448 19.1561 4.15454L19.1651 4.17209C19.5694 4.96045 20.2097 5.59395 20.9915 5.979L21.0029 5.98485C21.9721 6.46936 22.5605 7.46968 22.5012 8.53401L22.4999 8.55913C22.453 9.44692 22.6933 10.3254 23.183 11.0584C23.7747 11.9458 23.7744 13.1158 23.1823 14.0029C22.693 14.7362 22.453 15.6151 22.4999 16.5029L22.5012 16.5266C22.5605 17.5909 21.9721 18.5916 21.0025 19.0764L20.9925 19.0813C20.209 19.4673 19.5674 20.1026 19.1628 20.8933L19.1578 20.9037C18.6658 21.8665 17.6377 22.4504 16.5422 22.3902L16.5185 22.3888C15.6433 22.3386 14.7745 22.5709 14.0338 23.053C13.0994 23.6538 11.9133 23.6538 10.9789 23.053C10.3055 22.6142 9.52433 22.3816 8.72712 22.3823C8.64981 22.3823 8.57217 22.3843 8.49452 22.3888L8.47042 22.3899C7.39108 22.4604 6.36997 21.8795 5.85423 20.9019L5.8472 20.8885C5.44357 20.1005 4.80367 19.4673 4.02219 19.0823L4.00947 19.0758C3.0399 18.5912 2.45153 17.5906 2.51111 16.5266L2.51244 16.5015C2.55896 15.6137 2.31866 14.7348 1.82936 14.0022C1.23798 13.1148 1.23832 11.9448 1.83037 11.058V11.0573Z" fill="#F25410"/>
<path d="M8.08386 19.8159C8.40482 20.022 8.82752 19.9212 9.02799 19.5912L17.1477 6.21712C17.2802 6.00343 17.2912 5.73296 17.1761 5.50895C17.061 5.28459 16.8374 5.14144 16.5911 5.13352C16.3448 5.12561 16.1132 5.25431 15.9847 5.47075L7.86531 18.8448C7.66484 19.1752 7.76256 19.6098 8.08386 19.8159Z" fill="#F25410"/>
<path d="M8.81136 12.5652C10.4804 12.5652 11.8385 10.973 11.8385 9.0161C11.8385 7.05916 10.4804 5.46732 8.81136 5.46732C7.14231 5.46732 5.78452 7.05916 5.78452 9.0161C5.78452 10.973 7.14231 12.5652 8.81136 12.5652ZM8.81136 6.87678C9.72471 6.87678 10.4677 7.8365 10.4677 9.0161C10.4677 10.1957 9.72471 11.1558 8.81136 11.1558C7.89836 11.1558 7.15537 10.1954 7.15537 9.0161C7.15537 7.83684 7.89836 6.87678 8.81136 6.87678Z" fill="#F25410"/>
<path d="M13.1742 16.0455C13.1742 18.0025 14.532 19.5943 16.2011 19.5943C17.8701 19.5943 19.2282 18.0021 19.2282 16.0455C19.2282 14.0893 17.8704 12.4967 16.2014 12.4967C14.532 12.4967 13.1742 14.0882 13.1742 16.0455ZM17.8574 16.0455C17.8574 17.2251 17.1144 18.1848 16.2011 18.1848C15.2881 18.1848 14.5451 17.2251 14.5451 16.0455C14.5451 14.8659 15.2881 13.9062 16.2011 13.9062C17.1144 13.9062 17.8574 14.8652 17.8574 16.0455Z" fill="#F25410"/>
</svg>
